<?xml version="1.0" encoding="utf-8" standalone="no"?>
<!DOCTYPE svg PUBLIC "-//W3C//DTD SVG 1.1//EN"
  "http://www.w3.org/Graphics/SVG/1.1/DTD/svg11.dtd">
<svg height="1152pt" version="1.1" viewBox="0 0 1728 1152" width="1728pt" xmlns="http://www.w3.org/2000/svg" xmlns:xlink="http://www.w3.org/1999/xlink">
 <metadata>
  <rdf:RDF xmlns:cc="http://creativecommons.org/ns#" xmlns:dc="http://purl.org/dc/elements/1.1/" xmlns:rdf="http://www.w3.org/1999/02/22-rdf-syntax-ns#">
   <cc:Work>
    <dc:type rdf:resource="http://purl.org/dc/dcmitype/StillImage"/>
    <dc:date>2021-12-21T19:12:29.600309</dc:date>
    <dc:format>image/svg+xml</dc:format>
    <dc:creator>
     <cc:Agent>
      <dc:title>Matplotlib v3.4.3, https://matplotlib.org/</dc:title>
     </cc:Agent>
    </dc:creator>
   </cc:Work>
  </rdf:RDF>
 </metadata>
 <defs>
  <style type="text/css">*{stroke-linecap:butt;stroke-linejoin:round;}</style>
 </defs>
 <g id="figure_1">
  <g id="patch_1">
   <path d="M 0 1152 
L 1728 1152 
L 1728 0 
L 0 0 
z
" style="fill:none;"/>
  </g>
  <g id="axes_1">
   <g id="patch_2">
    <path d="M 0 1152 
L 1728 1152 
L 1728 0 
L 0 0 
z
" style="fill:#ffffff;"/>
   </g>
   <g id="patch_3">
    <path clip-path="url(#p62cdd4661e)" d="M 78.545455 1152 
L 133.665072 1152 
L 133.665072 54.857143 
L 78.545455 54.857143 
z
" style="fill:#ff0000;opacity:0.5;"/>
   </g>
   <g id="patch_4">
    <path clip-path="url(#p62cdd4661e)" d="M 147.444976 1152 
L 202.564593 1152 
L 202.564593 636.391217 
L 147.444976 636.391217 
z
" style="fill:#ff0000;opacity:0.5;"/>
   </g>
   <g id="patch_5">
    <path clip-path="url(#p62cdd4661e)" d="M 216.344498 1152 
L 271.464115 1152 
L 271.464115 679.430167 
L 216.344498 679.430167 
z
" style="fill:#ff0000;opacity:0.5;"/>
   </g>
   <g id="patch_6">
    <path clip-path="url(#p62cdd4661e)" d="M 285.244019 1152 
L 340.363636 1152 
L 340.363636 750.443465 
L 285.244019 750.443465 
z
" style="fill:#ff0000;opacity:0.5;"/>
   </g>
   <g id="patch_7">
    <path clip-path="url(#p62cdd4661e)" d="M 354.143541 1152 
L 409.263158 1152 
L 409.263158 803.45347 
L 354.143541 803.45347 
z
" style="fill:#ff0000;opacity:0.5;"/>
   </g>
   <g id="patch_8">
    <path clip-path="url(#p62cdd4661e)" d="M 423.043062 1152 
L 478.162679 1152 
L 478.162679 820.080204 
L 423.043062 820.080204 
z
" style="fill:#ff0000;opacity:0.5;"/>
   </g>
   <g id="patch_9">
    <path clip-path="url(#p62cdd4661e)" d="M 491.942584 1152 
L 547.062201 1152 
L 547.062201 826.34812 
L 491.942584 826.34812 
z
" style="fill:#ff0000;opacity:0.5;"/>
   </g>
   <g id="patch_10">
    <path clip-path="url(#p62cdd4661e)" d="M 560.842105 1152 
L 615.961722 1152 
L 615.961722 838.859024 
L 560.842105 838.859024 
z
" style="fill:#ff0000;opacity:0.5;"/>
   </g>
   <g id="patch_11">
    <path clip-path="url(#p62cdd4661e)" d="M 629.741627 1152 
L 684.861244 1152 
L 684.861244 839.864439 
L 629.741627 839.864439 
z
" style="fill:#ff0000;opacity:0.5;"/>
   </g>
   <g id="patch_12">
    <path clip-path="url(#p62cdd4661e)" d="M 698.641148 1152 
L 753.760766 1152 
L 753.760766 841.950051 
L 698.641148 841.950051 
z
" style="fill:#ff0000;opacity:0.5;"/>
   </g>
   <g id="patch_13">
    <path clip-path="url(#p62cdd4661e)" d="M 767.54067 1152 
L 822.660287 1152 
L 822.660287 872.480867 
L 767.54067 872.480867 
z
" style="fill:#ff0000;opacity:0.5;"/>
   </g>
   <g id="patch_14">
    <path clip-path="url(#p62cdd4661e)" d="M 836.440191 1152 
L 891.559809 1152 
L 891.559809 880.128112 
L 836.440191 880.128112 
z
" style="fill:#ff0000;opacity:0.5;"/>
   </g>
   <g id="patch_15">
    <path clip-path="url(#p62cdd4661e)" d="M 905.339713 1152 
L 960.45933 1152 
L 960.45933 892.040753 
L 905.339713 892.040753 
z
" style="fill:#ff0000;opacity:0.5;"/>
   </g>
   <g id="patch_16">
    <path clip-path="url(#p62cdd4661e)" d="M 974.239234 1152 
L 1029.358852 1152 
L 1029.358852 905.266249 
L 974.239234 905.266249 
z
" style="fill:#ff0000;opacity:0.5;"/>
   </g>
   <g id="patch_17">
    <path clip-path="url(#p62cdd4661e)" d="M 1043.138756 1152 
L 1098.258373 1152 
L 1098.258373 914.547639 
L 1043.138756 914.547639 
z
" style="fill:#ff0000;opacity:0.5;"/>
   </g>
   <g id="patch_18">
    <path clip-path="url(#p62cdd4661e)" d="M 1112.038278 1152 
L 1167.157895 1152 
L 1167.157895 922.34168 
L 1112.038278 922.34168 
z
" style="fill:#ff0000;opacity:0.5;"/>
   </g>
   <g id="patch_19">
    <path clip-path="url(#p62cdd4661e)" d="M 1180.937799 1152 
L 1236.057416 1152 
L 1236.057416 989.275155 
L 1180.937799 989.275155 
z
" style="fill:#ff0000;opacity:0.5;"/>
   </g>
   <g id="patch_20">
    <path clip-path="url(#p62cdd4661e)" d="M 1249.837321 1152 
L 1304.956938 1152 
L 1304.956938 991.424472 
L 1249.837321 991.424472 
z
" style="fill:#ff0000;opacity:0.5;"/>
   </g>
   <g id="patch_21">
    <path clip-path="url(#p62cdd4661e)" d="M 1318.736842 1152 
L 1373.856459 1152 
L 1373.856459 993.939393 
L 1318.736842 993.939393 
z
" style="fill:#ff0000;opacity:0.5;"/>
   </g>
   <g id="patch_22">
    <path clip-path="url(#p62cdd4661e)" d="M 1387.636364 1152 
L 1442.755981 1152 
L 1442.755981 998.83075 
L 1387.636364 998.83075 
z
" style="fill:#ff0000;opacity:0.5;"/>
   </g>
   <g id="patch_23">
    <path clip-path="url(#p62cdd4661e)" d="M 1456.535885 1152 
L 1511.655502 1152 
L 1511.655502 1000.661546 
L 1456.535885 1000.661546 
z
" style="fill:#ff0000;opacity:0.5;"/>
   </g>
   <g id="patch_24">
    <path clip-path="url(#p62cdd4661e)" d="M 1525.435407 1152 
L 1580.555024 1152 
L 1580.555024 1028.835315 
L 1525.435407 1028.835315 
z
" style="fill:#ff0000;opacity:0.5;"/>
   </g>
   <g id="patch_25">
    <path clip-path="url(#p62cdd4661e)" d="M 1594.334928 1152 
L 1649.454545 1152 
L 1649.454545 1035.873218 
L 1594.334928 1035.873218 
z
" style="fill:#ff0000;opacity:0.5;"/>
   </g>
   <g id="patch_26">
    <path clip-path="url(#p62cdd4661e)" d="M 78.545455 1152 
L 133.665072 1152 
L 133.665072 1120.148019 
L 78.545455 1120.148019 
z
" style="fill:#0000ff;opacity:0.5;"/>
   </g>
   <g id="patch_27">
    <path clip-path="url(#p62cdd4661e)" d="M 147.444976 1152 
L 202.564593 1152 
L 202.564593 1117.932229 
L 147.444976 1117.932229 
z
" style="fill:#0000ff;opacity:0.5;"/>
   </g>
   <g id="patch_28">
    <path clip-path="url(#p62cdd4661e)" d="M 216.344498 1152 
L 271.464115 1152 
L 271.464115 1129.011179 
L 216.344498 1129.011179 
z
" style="fill:#0000ff;opacity:0.5;"/>
   </g>
   <g id="patch_29">
    <path clip-path="url(#p62cdd4661e)" d="M 285.244019 1152 
L 340.363636 1152 
L 340.363636 1117.932229 
L 285.244019 1117.932229 
z
" style="fill:#0000ff;opacity:0.5;"/>
   </g>
   <g id="patch_30">
    <path clip-path="url(#p62cdd4661e)" d="M 354.143541 1152 
L 409.263158 1152 
L 409.263158 1124.579599 
L 354.143541 1124.579599 
z
" style="fill:#0000ff;opacity:0.5;"/>
   </g>
   <g id="patch_31">
    <path clip-path="url(#p62cdd4661e)" d="M 423.043062 1152 
L 478.162679 1152 
L 478.162679 1124.579599 
L 423.043062 1124.579599 
z
" style="fill:#0000ff;opacity:0.5;"/>
   </g>
   <g id="patch_32">
    <path clip-path="url(#p62cdd4661e)" d="M 491.942584 1152 
L 547.062201 1152 
L 547.062201 1117.932229 
L 491.942584 1117.932229 
z
" style="fill:#0000ff;opacity:0.5;"/>
   </g>
   <g id="patch_33">
    <path clip-path="url(#p62cdd4661e)" d="M 560.842105 1152 
L 615.961722 1152 
L 615.961722 1122.363809 
L 560.842105 1122.363809 
z
" style="fill:#0000ff;opacity:0.5;"/>
   </g>
   <g id="patch_34">
    <path clip-path="url(#p62cdd4661e)" d="M 629.741627 1152 
L 684.861244 1152 
L 684.861244 1117.932229 
L 629.741627 1117.932229 
z
" style="fill:#0000ff;opacity:0.5;"/>
   </g>
   <g id="patch_35">
    <path clip-path="url(#p62cdd4661e)" d="M 698.641148 1152 
L 753.760766 1152 
L 753.760766 1120.148019 
L 698.641148 1120.148019 
z
" style="fill:#0000ff;opacity:0.5;"/>
   </g>
   <g id="patch_36">
    <path clip-path="url(#p62cdd4661e)" d="M 767.54067 1152 
L 822.660287 1152 
L 822.660287 1122.363809 
L 767.54067 1122.363809 
z
" style="fill:#0000ff;opacity:0.5;"/>
   </g>
   <g id="patch_37">
    <path clip-path="url(#p62cdd4661e)" d="M 836.440191 1152 
L 891.559809 1152 
L 891.559809 1122.363809 
L 836.440191 1122.363809 
z
" style="fill:#0000ff;opacity:0.5;"/>
   </g>
   <g id="patch_38">
    <path clip-path="url(#p62cdd4661e)" d="M 905.339713 1152 
L 960.45933 1152 
L 960.45933 1135.658549 
L 905.339713 1135.658549 
z
" style="fill:#0000ff;opacity:0.5;"/>
   </g>
   <g id="patch_39">
    <path clip-path="url(#p62cdd4661e)" d="M 974.239234 1152 
L 1029.358852 1152 
L 1029.358852 1122.363809 
L 974.239234 1122.363809 
z
" style="fill:#0000ff;opacity:0.5;"/>
   </g>
   <g id="patch_40">
    <path clip-path="url(#p62cdd4661e)" d="M 1043.138756 1152 
L 1098.258373 1152 
L 1098.258373 1120.148019 
L 1043.138756 1120.148019 
z
" style="fill:#0000ff;opacity:0.5;"/>
   </g>
   <g id="patch_41">
    <path clip-path="url(#p62cdd4661e)" d="M 1112.038278 1152 
L 1167.157895 1152 
L 1167.157895 1122.363809 
L 1112.038278 1122.363809 
z
" style="fill:#0000ff;opacity:0.5;"/>
   </g>
   <g id="patch_42">
    <path clip-path="url(#p62cdd4661e)" d="M 1180.937799 1152 
L 1236.057416 1152 
L 1236.057416 1122.363809 
L 1180.937799 1122.363809 
z
" style="fill:#0000ff;opacity:0.5;"/>
   </g>
   <g id="patch_43">
    <path clip-path="url(#p62cdd4661e)" d="M 1249.837321 1152 
L 1304.956938 1152 
L 1304.956938 1122.363809 
L 1249.837321 1122.363809 
z
" style="fill:#0000ff;opacity:0.5;"/>
   </g>
   <g id="patch_44">
    <path clip-path="url(#p62cdd4661e)" d="M 1318.736842 1152 
L 1373.856459 1152 
L 1373.856459 1122.363809 
L 1318.736842 1122.363809 
z
" style="fill:#0000ff;opacity:0.5;"/>
   </g>
   <g id="patch_45">
    <path clip-path="url(#p62cdd4661e)" d="M 1387.636364 1152 
L 1442.755981 1152 
L 1442.755981 1126.795389 
L 1387.636364 1126.795389 
z
" style="fill:#0000ff;opacity:0.5;"/>
   </g>
   <g id="patch_46">
    <path clip-path="url(#p62cdd4661e)" d="M 1456.535885 1152 
L 1511.655502 1152 
L 1511.655502 1122.363809 
L 1456.535885 1122.363809 
z
" style="fill:#0000ff;opacity:0.5;"/>
   </g>
   <g id="patch_47">
    <path clip-path="url(#p62cdd4661e)" d="M 1525.435407 1152 
L 1580.555024 1152 
L 1580.555024 1124.579599 
L 1525.435407 1124.579599 
z
" style="fill:#0000ff;opacity:0.5;"/>
   </g>
   <g id="patch_48">
    <path clip-path="url(#p62cdd4661e)" d="M 1594.334928 1152 
L 1649.454545 1152 
L 1649.454545 1129.011179 
L 1594.334928 1129.011179 
z
" style="fill:#0000ff;opacity:0.5;"/>
   </g>
   <g id="matplotlib.axis_1">
    <g id="xtick_1">
     <g id="line2d_1">
      <defs>
       <path d="M 0 0 
L 0 3.5 
" id="md9c6dd44d4" style="stroke:#000000;stroke-width:0.8;"/>
      </defs>
      <g>
       <use style="stroke:#000000;stroke-width:0.8;" x="106.105263" xlink:href="#md9c6dd44d4" y="1152"/>
      </g>
     </g>
     <g id="text_1">
      <!-- SHAREINDIA.NS -->
      <g transform="translate(110.244326 1277.096875)rotate(-90)scale(0.15 -0.15)">
       <defs>
        <path d="M 3425 4513 
L 3425 3897 
Q 3066 4069 2747 4153 
Q 2428 4238 2131 4238 
Q 1616 4238 1336 4038 
Q 1056 3838 1056 3469 
Q 1056 3159 1242 3001 
Q 1428 2844 1947 2747 
L 2328 2669 
Q 3034 2534 3370 2195 
Q 3706 1856 3706 1288 
Q 3706 609 3251 259 
Q 2797 -91 1919 -91 
Q 1588 -91 1214 -16 
Q 841 59 441 206 
L 441 856 
Q 825 641 1194 531 
Q 1563 422 1919 422 
Q 2459 422 2753 634 
Q 3047 847 3047 1241 
Q 3047 1584 2836 1778 
Q 2625 1972 2144 2069 
L 1759 2144 
Q 1053 2284 737 2584 
Q 422 2884 422 3419 
Q 422 4038 858 4394 
Q 1294 4750 2059 4750 
Q 2388 4750 2728 4690 
Q 3069 4631 3425 4513 
z
" id="DejaVuSans-53" transform="scale(0.015625)"/>
        <path d="M 628 4666 
L 1259 4666 
L 1259 2753 
L 3553 2753 
L 3553 4666 
L 4184 4666 
L 4184 0 
L 3553 0 
L 3553 2222 
L 1259 2222 
L 1259 0 
L 628 0 
L 628 4666 
z
" id="DejaVuSans-48" transform="scale(0.015625)"/>
        <path d="M 2188 4044 
L 1331 1722 
L 3047 1722 
L 2188 4044 
z
M 1831 4666 
L 2547 4666 
L 4325 0 
L 3669 0 
L 3244 1197 
L 1141 1197 
L 716 0 
L 50 0 
L 1831 4666 
z
" id="DejaVuSans-41" transform="scale(0.015625)"/>
        <path d="M 2841 2188 
Q 3044 2119 3236 1894 
Q 3428 1669 3622 1275 
L 4263 0 
L 3584 0 
L 2988 1197 
Q 2756 1666 2539 1819 
Q 2322 1972 1947 1972 
L 1259 1972 
L 1259 0 
L 628 0 
L 628 4666 
L 2053 4666 
Q 2853 4666 3247 4331 
Q 3641 3997 3641 3322 
Q 3641 2881 3436 2590 
Q 3231 2300 2841 2188 
z
M 1259 4147 
L 1259 2491 
L 2053 2491 
Q 2509 2491 2742 2702 
Q 2975 2913 2975 3322 
Q 2975 3731 2742 3939 
Q 2509 4147 2053 4147 
L 1259 4147 
z
" id="DejaVuSans-52" transform="scale(0.015625)"/>
        <path d="M 628 4666 
L 3578 4666 
L 3578 4134 
L 1259 4134 
L 1259 2753 
L 3481 2753 
L 3481 2222 
L 1259 2222 
L 1259 531 
L 3634 531 
L 3634 0 
L 628 0 
L 628 4666 
z
" id="DejaVuSans-45" transform="scale(0.015625)"/>
        <path d="M 628 4666 
L 1259 4666 
L 1259 0 
L 628 0 
L 628 4666 
z
" id="DejaVuSans-49" transform="scale(0.015625)"/>
        <path d="M 628 4666 
L 1478 4666 
L 3547 763 
L 3547 4666 
L 4159 4666 
L 4159 0 
L 3309 0 
L 1241 3903 
L 1241 0 
L 628 0 
L 628 4666 
z
" id="DejaVuSans-4e" transform="scale(0.015625)"/>
        <path d="M 1259 4147 
L 1259 519 
L 2022 519 
Q 2988 519 3436 956 
Q 3884 1394 3884 2338 
Q 3884 3275 3436 3711 
Q 2988 4147 2022 4147 
L 1259 4147 
z
M 628 4666 
L 1925 4666 
Q 3281 4666 3915 4102 
Q 4550 3538 4550 2338 
Q 4550 1131 3912 565 
Q 3275 0 1925 0 
L 628 0 
L 628 4666 
z
" id="DejaVuSans-44" transform="scale(0.015625)"/>
        <path d="M 684 794 
L 1344 794 
L 1344 0 
L 684 0 
L 684 794 
z
" id="DejaVuSans-2e" transform="scale(0.015625)"/>
       </defs>
       <use xlink:href="#DejaVuSans-53"/>
       <use x="63.476562" xlink:href="#DejaVuSans-48"/>
       <use x="138.671875" xlink:href="#DejaVuSans-41"/>
       <use x="207.080078" xlink:href="#DejaVuSans-52"/>
       <use x="276.5625" xlink:href="#DejaVuSans-45"/>
       <use x="339.746094" xlink:href="#DejaVuSans-49"/>
       <use x="369.238281" xlink:href="#DejaVuSans-4e"/>
       <use x="444.042969" xlink:href="#DejaVuSans-44"/>
       <use x="521.044922" xlink:href="#DejaVuSans-49"/>
       <use x="550.537109" xlink:href="#DejaVuSans-41"/>
       <use x="617.195312" xlink:href="#DejaVuSans-2e"/>
       <use x="648.982422" xlink:href="#DejaVuSans-4e"/>
       <use x="723.787109" xlink:href="#DejaVuSans-53"/>
      </g>
     </g>
    </g>
    <g id="xtick_2">
     <g id="line2d_2">
      <g>
       <use style="stroke:#000000;stroke-width:0.8;" x="175.004785" xlink:href="#md9c6dd44d4" y="1152"/>
      </g>
     </g>
     <g id="text_2">
      <!-- ATGL.NS -->
      <g transform="translate(179.143847 1222.752344)rotate(-90)scale(0.15 -0.15)">
       <defs>
        <path d="M -19 4666 
L 3928 4666 
L 3928 4134 
L 2272 4134 
L 2272 0 
L 1638 0 
L 1638 4134 
L -19 4134 
L -19 4666 
z
" id="DejaVuSans-54" transform="scale(0.015625)"/>
        <path d="M 3809 666 
L 3809 1919 
L 2778 1919 
L 2778 2438 
L 4434 2438 
L 4434 434 
Q 4069 175 3628 42 
Q 3188 -91 2688 -91 
Q 1594 -91 976 548 
Q 359 1188 359 2328 
Q 359 3472 976 4111 
Q 1594 4750 2688 4750 
Q 3144 4750 3555 4637 
Q 3966 4525 4313 4306 
L 4313 3634 
Q 3963 3931 3569 4081 
Q 3175 4231 2741 4231 
Q 1884 4231 1454 3753 
Q 1025 3275 1025 2328 
Q 1025 1384 1454 906 
Q 1884 428 2741 428 
Q 3075 428 3337 486 
Q 3600 544 3809 666 
z
" id="DejaVuSans-47" transform="scale(0.015625)"/>
        <path d="M 628 4666 
L 1259 4666 
L 1259 531 
L 3531 531 
L 3531 0 
L 628 0 
L 628 4666 
z
" id="DejaVuSans-4c" transform="scale(0.015625)"/>
       </defs>
       <use xlink:href="#DejaVuSans-41"/>
       <use x="60.658203" xlink:href="#DejaVuSans-54"/>
       <use x="121.742188" xlink:href="#DejaVuSans-47"/>
       <use x="199.232422" xlink:href="#DejaVuSans-4c"/>
       <use x="254.945312" xlink:href="#DejaVuSans-2e"/>
       <use x="286.732422" xlink:href="#DejaVuSans-4e"/>
       <use x="361.537109" xlink:href="#DejaVuSans-53"/>
      </g>
     </g>
    </g>
    <g id="xtick_3">
     <g id="line2d_3">
      <g>
       <use style="stroke:#000000;stroke-width:0.8;" x="243.904306" xlink:href="#md9c6dd44d4" y="1152"/>
      </g>
     </g>
     <g id="text_3">
      <!-- HAPPSTMNDS.NS -->
      <g transform="translate(248.043369 1288.063281)rotate(-90)scale(0.15 -0.15)">
       <defs>
        <path d="M 1259 4147 
L 1259 2394 
L 2053 2394 
Q 2494 2394 2734 2622 
Q 2975 2850 2975 3272 
Q 2975 3691 2734 3919 
Q 2494 4147 2053 4147 
L 1259 4147 
z
M 628 4666 
L 2053 4666 
Q 2838 4666 3239 4311 
Q 3641 3956 3641 3272 
Q 3641 2581 3239 2228 
Q 2838 1875 2053 1875 
L 1259 1875 
L 1259 0 
L 628 0 
L 628 4666 
z
" id="DejaVuSans-50" transform="scale(0.015625)"/>
        <path d="M 628 4666 
L 1569 4666 
L 2759 1491 
L 3956 4666 
L 4897 4666 
L 4897 0 
L 4281 0 
L 4281 4097 
L 3078 897 
L 2444 897 
L 1241 4097 
L 1241 0 
L 628 0 
L 628 4666 
z
" id="DejaVuSans-4d" transform="scale(0.015625)"/>
       </defs>
       <use xlink:href="#DejaVuSans-48"/>
       <use x="75.195312" xlink:href="#DejaVuSans-41"/>
       <use x="143.603516" xlink:href="#DejaVuSans-50"/>
       <use x="203.90625" xlink:href="#DejaVuSans-50"/>
       <use x="264.208984" xlink:href="#DejaVuSans-53"/>
       <use x="327.685547" xlink:href="#DejaVuSans-54"/>
       <use x="388.769531" xlink:href="#DejaVuSans-4d"/>
       <use x="475.048828" xlink:href="#DejaVuSans-4e"/>
       <use x="549.853516" xlink:href="#DejaVuSans-44"/>
       <use x="626.855469" xlink:href="#DejaVuSans-53"/>
       <use x="690.332031" xlink:href="#DejaVuSans-2e"/>
       <use x="722.119141" xlink:href="#DejaVuSans-4e"/>
       <use x="796.923828" xlink:href="#DejaVuSans-53"/>
      </g>
     </g>
    </g>
    <g id="xtick_4">
     <g id="line2d_4">
      <g>
       <use style="stroke:#000000;stroke-width:0.8;" x="312.803828" xlink:href="#md9c6dd44d4" y="1152"/>
      </g>
     </g>
     <g id="text_4">
      <!-- OAL.NS -->
      <g transform="translate(316.94289 1214.675781)rotate(-90)scale(0.15 -0.15)">
       <defs>
        <path d="M 2522 4238 
Q 1834 4238 1429 3725 
Q 1025 3213 1025 2328 
Q 1025 1447 1429 934 
Q 1834 422 2522 422 
Q 3209 422 3611 934 
Q 4013 1447 4013 2328 
Q 4013 3213 3611 3725 
Q 3209 4238 2522 4238 
z
M 2522 4750 
Q 3503 4750 4090 4092 
Q 4678 3434 4678 2328 
Q 4678 1225 4090 567 
Q 3503 -91 2522 -91 
Q 1538 -91 948 565 
Q 359 1222 359 2328 
Q 359 3434 948 4092 
Q 1538 4750 2522 4750 
z
" id="DejaVuSans-4f" transform="scale(0.015625)"/>
       </defs>
       <use xlink:href="#DejaVuSans-4f"/>
       <use x="76.960938" xlink:href="#DejaVuSans-41"/>
       <use x="145.369141" xlink:href="#DejaVuSans-4c"/>
       <use x="201.082031" xlink:href="#DejaVuSans-2e"/>
       <use x="232.869141" xlink:href="#DejaVuSans-4e"/>
       <use x="307.673828" xlink:href="#DejaVuSans-53"/>
      </g>
     </g>
    </g>
    <g id="xtick_5">
     <g id="line2d_5">
      <g>
       <use style="stroke:#000000;stroke-width:0.8;" x="381.703349" xlink:href="#md9c6dd44d4" y="1152"/>
      </g>
     </g>
     <g id="text_5">
      <!-- IRCTC.NS -->
      <g transform="translate(385.842412 1227.838281)rotate(-90)scale(0.15 -0.15)">
       <defs>
        <path d="M 4122 4306 
L 4122 3641 
Q 3803 3938 3442 4084 
Q 3081 4231 2675 4231 
Q 1875 4231 1450 3742 
Q 1025 3253 1025 2328 
Q 1025 1406 1450 917 
Q 1875 428 2675 428 
Q 3081 428 3442 575 
Q 3803 722 4122 1019 
L 4122 359 
Q 3791 134 3420 21 
Q 3050 -91 2638 -91 
Q 1578 -91 968 557 
Q 359 1206 359 2328 
Q 359 3453 968 4101 
Q 1578 4750 2638 4750 
Q 3056 4750 3426 4639 
Q 3797 4528 4122 4306 
z
" id="DejaVuSans-43" transform="scale(0.015625)"/>
       </defs>
       <use xlink:href="#DejaVuSans-49"/>
       <use x="29.492188" xlink:href="#DejaVuSans-52"/>
       <use x="93.974609" xlink:href="#DejaVuSans-43"/>
       <use x="163.798828" xlink:href="#DejaVuSans-54"/>
       <use x="219.007812" xlink:href="#DejaVuSans-43"/>
       <use x="288.832031" xlink:href="#DejaVuSans-2e"/>
       <use x="320.619141" xlink:href="#DejaVuSans-4e"/>
       <use x="395.423828" xlink:href="#DejaVuSans-53"/>
      </g>
     </g>
    </g>
    <g id="xtick_6">
     <g id="line2d_6">
      <g>
       <use style="stroke:#000000;stroke-width:0.8;" x="450.602871" xlink:href="#md9c6dd44d4" y="1152"/>
      </g>
     </g>
     <g id="text_6">
      <!-- AFFLE.NS -->
      <g transform="translate(454.741933 1229.863281)rotate(-90)scale(0.15 -0.15)">
       <defs>
        <path d="M 628 4666 
L 3309 4666 
L 3309 4134 
L 1259 4134 
L 1259 2759 
L 3109 2759 
L 3109 2228 
L 1259 2228 
L 1259 0 
L 628 0 
L 628 4666 
z
" id="DejaVuSans-46" transform="scale(0.015625)"/>
       </defs>
       <use xlink:href="#DejaVuSans-41"/>
       <use x="68.408203" xlink:href="#DejaVuSans-46"/>
       <use x="125.927734" xlink:href="#DejaVuSans-46"/>
       <use x="183.447266" xlink:href="#DejaVuSans-4c"/>
       <use x="239.160156" xlink:href="#DejaVuSans-45"/>
       <use x="302.34375" xlink:href="#DejaVuSans-2e"/>
       <use x="334.130859" xlink:href="#DejaVuSans-4e"/>
       <use x="408.935547" xlink:href="#DejaVuSans-53"/>
      </g>
     </g>
    </g>
    <g id="xtick_7">
     <g id="line2d_7">
      <g>
       <use style="stroke:#000000;stroke-width:0.8;" x="519.502392" xlink:href="#md9c6dd44d4" y="1152"/>
      </g>
     </g>
     <g id="text_7">
      <!-- LIKHITHA.NS -->
      <g transform="translate(523.641455 1253.277344)rotate(-90)scale(0.15 -0.15)">
       <defs>
        <path d="M 628 4666 
L 1259 4666 
L 1259 2694 
L 3353 4666 
L 4166 4666 
L 1850 2491 
L 4331 0 
L 3500 0 
L 1259 2247 
L 1259 0 
L 628 0 
L 628 4666 
z
" id="DejaVuSans-4b" transform="scale(0.015625)"/>
       </defs>
       <use xlink:href="#DejaVuSans-4c"/>
       <use x="55.712891" xlink:href="#DejaVuSans-49"/>
       <use x="85.205078" xlink:href="#DejaVuSans-4b"/>
       <use x="150.78125" xlink:href="#DejaVuSans-48"/>
       <use x="225.976562" xlink:href="#DejaVuSans-49"/>
       <use x="255.46875" xlink:href="#DejaVuSans-54"/>
       <use x="316.552734" xlink:href="#DejaVuSans-48"/>
       <use x="391.748047" xlink:href="#DejaVuSans-41"/>
       <use x="458.40625" xlink:href="#DejaVuSans-2e"/>
       <use x="490.193359" xlink:href="#DejaVuSans-4e"/>
       <use x="564.998047" xlink:href="#DejaVuSans-53"/>
      </g>
     </g>
    </g>
    <g id="xtick_8">
     <g id="line2d_8">
      <g>
       <use style="stroke:#000000;stroke-width:0.8;" x="588.401914" xlink:href="#md9c6dd44d4" y="1152"/>
      </g>
     </g>
     <g id="text_8">
      <!-- NDRAUTO.NS -->
      <g transform="translate(592.540976 1258.714844)rotate(-90)scale(0.15 -0.15)">
       <defs>
        <path d="M 556 4666 
L 1191 4666 
L 1191 1831 
Q 1191 1081 1462 751 
Q 1734 422 2344 422 
Q 2950 422 3222 751 
Q 3494 1081 3494 1831 
L 3494 4666 
L 4128 4666 
L 4128 1753 
Q 4128 841 3676 375 
Q 3225 -91 2344 -91 
Q 1459 -91 1007 375 
Q 556 841 556 1753 
L 556 4666 
z
" id="DejaVuSans-55" transform="scale(0.015625)"/>
       </defs>
       <use xlink:href="#DejaVuSans-4e"/>
       <use x="74.804688" xlink:href="#DejaVuSans-44"/>
       <use x="151.806641" xlink:href="#DejaVuSans-52"/>
       <use x="217.289062" xlink:href="#DejaVuSans-41"/>
       <use x="285.697266" xlink:href="#DejaVuSans-55"/>
       <use x="358.890625" xlink:href="#DejaVuSans-54"/>
       <use x="419.974609" xlink:href="#DejaVuSans-4f"/>
       <use x="494.685547" xlink:href="#DejaVuSans-2e"/>
       <use x="526.472656" xlink:href="#DejaVuSans-4e"/>
       <use x="601.277344" xlink:href="#DejaVuSans-53"/>
      </g>
     </g>
    </g>
    <g id="xtick_9">
     <g id="line2d_9">
      <g>
       <use style="stroke:#000000;stroke-width:0.8;" x="657.301435" xlink:href="#md9c6dd44d4" y="1152"/>
      </g>
     </g>
     <g id="text_9">
      <!-- PRINCEPIPE.NS -->
      <g transform="translate(661.440498 1271.570312)rotate(-90)scale(0.15 -0.15)">
       <use xlink:href="#DejaVuSans-50"/>
       <use x="60.302734" xlink:href="#DejaVuSans-52"/>
       <use x="129.785156" xlink:href="#DejaVuSans-49"/>
       <use x="159.277344" xlink:href="#DejaVuSans-4e"/>
       <use x="234.082031" xlink:href="#DejaVuSans-43"/>
       <use x="303.90625" xlink:href="#DejaVuSans-45"/>
       <use x="367.089844" xlink:href="#DejaVuSans-50"/>
       <use x="427.392578" xlink:href="#DejaVuSans-49"/>
       <use x="456.884766" xlink:href="#DejaVuSans-50"/>
       <use x="517.1875" xlink:href="#DejaVuSans-45"/>
       <use x="580.371094" xlink:href="#DejaVuSans-2e"/>
       <use x="612.158203" xlink:href="#DejaVuSans-4e"/>
       <use x="686.962891" xlink:href="#DejaVuSans-53"/>
      </g>
     </g>
    </g>
    <g id="xtick_10">
     <g id="line2d_10">
      <g>
       <use style="stroke:#000000;stroke-width:0.8;" x="726.200957" xlink:href="#md9c6dd44d4" y="1152"/>
      </g>
     </g>
     <g id="text_10">
      <!-- BORORENEW.NS -->
      <g transform="translate(730.340019 1282.285938)rotate(-90)scale(0.15 -0.15)">
       <defs>
        <path d="M 1259 2228 
L 1259 519 
L 2272 519 
Q 2781 519 3026 730 
Q 3272 941 3272 1375 
Q 3272 1813 3026 2020 
Q 2781 2228 2272 2228 
L 1259 2228 
z
M 1259 4147 
L 1259 2741 
L 2194 2741 
Q 2656 2741 2882 2914 
Q 3109 3088 3109 3444 
Q 3109 3797 2882 3972 
Q 2656 4147 2194 4147 
L 1259 4147 
z
M 628 4666 
L 2241 4666 
Q 2963 4666 3353 4366 
Q 3744 4066 3744 3513 
Q 3744 3084 3544 2831 
Q 3344 2578 2956 2516 
Q 3422 2416 3680 2098 
Q 3938 1781 3938 1306 
Q 3938 681 3513 340 
Q 3088 0 2303 0 
L 628 0 
L 628 4666 
z
" id="DejaVuSans-42" transform="scale(0.015625)"/>
        <path d="M 213 4666 
L 850 4666 
L 1831 722 
L 2809 4666 
L 3519 4666 
L 4500 722 
L 5478 4666 
L 6119 4666 
L 4947 0 
L 4153 0 
L 3169 4050 
L 2175 0 
L 1381 0 
L 213 4666 
z
" id="DejaVuSans-57" transform="scale(0.015625)"/>
       </defs>
       <use xlink:href="#DejaVuSans-42"/>
       <use x="66.853516" xlink:href="#DejaVuSans-4f"/>
       <use x="145.564453" xlink:href="#DejaVuSans-52"/>
       <use x="215.046875" xlink:href="#DejaVuSans-4f"/>
       <use x="293.757812" xlink:href="#DejaVuSans-52"/>
       <use x="363.240234" xlink:href="#DejaVuSans-45"/>
       <use x="426.423828" xlink:href="#DejaVuSans-4e"/>
       <use x="501.228516" xlink:href="#DejaVuSans-45"/>
       <use x="564.412109" xlink:href="#DejaVuSans-57"/>
       <use x="651.789062" xlink:href="#DejaVuSans-2e"/>
       <use x="683.576172" xlink:href="#DejaVuSans-4e"/>
       <use x="758.380859" xlink:href="#DejaVuSans-53"/>
      </g>
     </g>
    </g>
    <g id="xtick_11">
     <g id="line2d_11">
      <g>
       <use style="stroke:#000000;stroke-width:0.8;" x="795.100478" xlink:href="#md9c6dd44d4" y="1152"/>
      </g>
     </g>
     <g id="text_11">
      <!-- INDIAMART.NS -->
      <g transform="translate(799.239541 1266.313281)rotate(-90)scale(0.15 -0.15)">
       <use xlink:href="#DejaVuSans-49"/>
       <use x="29.492188" xlink:href="#DejaVuSans-4e"/>
       <use x="104.296875" xlink:href="#DejaVuSans-44"/>
       <use x="181.298828" xlink:href="#DejaVuSans-49"/>
       <use x="210.791016" xlink:href="#DejaVuSans-41"/>
       <use x="279.199219" xlink:href="#DejaVuSans-4d"/>
       <use x="365.478516" xlink:href="#DejaVuSans-41"/>
       <use x="433.886719" xlink:href="#DejaVuSans-52"/>
       <use x="496.119141" xlink:href="#DejaVuSans-54"/>
       <use x="545.328125" xlink:href="#DejaVuSans-2e"/>
       <use x="577.115234" xlink:href="#DejaVuSans-4e"/>
       <use x="651.919922" xlink:href="#DejaVuSans-53"/>
      </g>
     </g>
    </g>
    <g id="xtick_12">
     <g id="line2d_12">
      <g>
       <use style="stroke:#000000;stroke-width:0.8;" x="864" xlink:href="#md9c6dd44d4" y="1152"/>
      </g>
     </g>
     <g id="text_12">
      <!-- DCMNVL.NS -->
      <g transform="translate(868.139062 1249.31875)rotate(-90)scale(0.15 -0.15)">
       <defs>
        <path d="M 1831 0 
L 50 4666 
L 709 4666 
L 2188 738 
L 3669 4666 
L 4325 4666 
L 2547 0 
L 1831 0 
z
" id="DejaVuSans-56" transform="scale(0.015625)"/>
       </defs>
       <use xlink:href="#DejaVuSans-44"/>
       <use x="77.001953" xlink:href="#DejaVuSans-43"/>
       <use x="146.826172" xlink:href="#DejaVuSans-4d"/>
       <use x="233.105469" xlink:href="#DejaVuSans-4e"/>
       <use x="307.910156" xlink:href="#DejaVuSans-56"/>
       <use x="376.318359" xlink:href="#DejaVuSans-4c"/>
       <use x="432.03125" xlink:href="#DejaVuSans-2e"/>
       <use x="463.818359" xlink:href="#DejaVuSans-4e"/>
       <use x="538.623047" xlink:href="#DejaVuSans-53"/>
      </g>
     </g>
    </g>
    <g id="xtick_13">
     <g id="line2d_13">
      <g>
       <use style="stroke:#000000;stroke-width:0.8;" x="932.899522" xlink:href="#md9c6dd44d4" y="1152"/>
      </g>
     </g>
     <g id="text_13">
      <!-- GLAND.NS -->
      <g transform="translate(937.038584 1237.8625)rotate(-90)scale(0.15 -0.15)">
       <use xlink:href="#DejaVuSans-47"/>
       <use x="77.490234" xlink:href="#DejaVuSans-4c"/>
       <use x="135.453125" xlink:href="#DejaVuSans-41"/>
       <use x="203.861328" xlink:href="#DejaVuSans-4e"/>
       <use x="278.666016" xlink:href="#DejaVuSans-44"/>
       <use x="355.667969" xlink:href="#DejaVuSans-2e"/>
       <use x="387.455078" xlink:href="#DejaVuSans-4e"/>
       <use x="462.259766" xlink:href="#DejaVuSans-53"/>
      </g>
     </g>
    </g>
    <g id="xtick_14">
     <g id="line2d_14">
      <g>
       <use style="stroke:#000000;stroke-width:0.8;" x="1001.799043" xlink:href="#md9c6dd44d4" y="1152"/>
      </g>
     </g>
     <g id="text_14">
      <!-- IIFLSEC.NS -->
      <g transform="translate(1005.938106 1239.821875)rotate(-90)scale(0.15 -0.15)">
       <use xlink:href="#DejaVuSans-49"/>
       <use x="29.492188" xlink:href="#DejaVuSans-49"/>
       <use x="58.984375" xlink:href="#DejaVuSans-46"/>
       <use x="116.503906" xlink:href="#DejaVuSans-4c"/>
       <use x="172.216797" xlink:href="#DejaVuSans-53"/>
       <use x="235.693359" xlink:href="#DejaVuSans-45"/>
       <use x="298.876953" xlink:href="#DejaVuSans-43"/>
       <use x="368.701172" xlink:href="#DejaVuSans-2e"/>
       <use x="400.488281" xlink:href="#DejaVuSans-4e"/>
       <use x="475.292969" xlink:href="#DejaVuSans-53"/>
      </g>
     </g>
    </g>
    <g id="xtick_15">
     <g id="line2d_15">
      <g>
       <use style="stroke:#000000;stroke-width:0.8;" x="1070.698565" xlink:href="#md9c6dd44d4" y="1152"/>
      </g>
     </g>
     <g id="text_15">
      <!-- APCOTEXIND.NS -->
      <g transform="translate(1074.837627 1282.210938)rotate(-90)scale(0.15 -0.15)">
       <defs>
        <path d="M 403 4666 
L 1081 4666 
L 2241 2931 
L 3406 4666 
L 4084 4666 
L 2584 2425 
L 4184 0 
L 3506 0 
L 2194 1984 
L 872 0 
L 191 0 
L 1856 2491 
L 403 4666 
z
" id="DejaVuSans-58" transform="scale(0.015625)"/>
       </defs>
       <use xlink:href="#DejaVuSans-41"/>
       <use x="68.408203" xlink:href="#DejaVuSans-50"/>
       <use x="128.710938" xlink:href="#DejaVuSans-43"/>
       <use x="198.535156" xlink:href="#DejaVuSans-4f"/>
       <use x="277.246094" xlink:href="#DejaVuSans-54"/>
       <use x="338.330078" xlink:href="#DejaVuSans-45"/>
       <use x="401.513672" xlink:href="#DejaVuSans-58"/>
       <use x="470.019531" xlink:href="#DejaVuSans-49"/>
       <use x="499.511719" xlink:href="#DejaVuSans-4e"/>
       <use x="574.316406" xlink:href="#DejaVuSans-44"/>
       <use x="651.318359" xlink:href="#DejaVuSans-2e"/>
       <use x="683.105469" xlink:href="#DejaVuSans-4e"/>
       <use x="757.910156" xlink:href="#DejaVuSans-53"/>
      </g>
     </g>
    </g>
    <g id="xtick_16">
     <g id="line2d_16">
      <g>
       <use style="stroke:#000000;stroke-width:0.8;" x="1139.598086" xlink:href="#md9c6dd44d4" y="1152"/>
      </g>
     </g>
     <g id="text_16">
      <!-- SUVENPHAR.NS -->
      <g transform="translate(1143.737149 1276.438281)rotate(-90)scale(0.15 -0.15)">
       <use xlink:href="#DejaVuSans-53"/>
       <use x="63.476562" xlink:href="#DejaVuSans-55"/>
       <use x="136.669922" xlink:href="#DejaVuSans-56"/>
       <use x="205.078125" xlink:href="#DejaVuSans-45"/>
       <use x="268.261719" xlink:href="#DejaVuSans-4e"/>
       <use x="343.066406" xlink:href="#DejaVuSans-50"/>
       <use x="403.369141" xlink:href="#DejaVuSans-48"/>
       <use x="478.564453" xlink:href="#DejaVuSans-41"/>
       <use x="546.972656" xlink:href="#DejaVuSans-52"/>
       <use x="612.830078" xlink:href="#DejaVuSans-2e"/>
       <use x="644.617188" xlink:href="#DejaVuSans-4e"/>
       <use x="719.421875" xlink:href="#DejaVuSans-53"/>
      </g>
     </g>
    </g>
    <g id="xtick_17">
     <g id="line2d_17">
      <g>
       <use style="stroke:#000000;stroke-width:0.8;" x="1208.497608" xlink:href="#md9c6dd44d4" y="1152"/>
      </g>
     </g>
     <g id="text_17">
      <!-- FINEORG.NS -->
      <g transform="translate(1212.63667 1252.117188)rotate(-90)scale(0.15 -0.15)">
       <use xlink:href="#DejaVuSans-46"/>
       <use x="57.519531" xlink:href="#DejaVuSans-49"/>
       <use x="87.011719" xlink:href="#DejaVuSans-4e"/>
       <use x="161.816406" xlink:href="#DejaVuSans-45"/>
       <use x="225" xlink:href="#DejaVuSans-4f"/>
       <use x="303.710938" xlink:href="#DejaVuSans-52"/>
       <use x="373.193359" xlink:href="#DejaVuSans-47"/>
       <use x="450.683594" xlink:href="#DejaVuSans-2e"/>
       <use x="482.470703" xlink:href="#DejaVuSans-4e"/>
       <use x="557.275391" xlink:href="#DejaVuSans-53"/>
      </g>
     </g>
    </g>
    <g id="xtick_18">
     <g id="line2d_18">
      <g>
       <use style="stroke:#000000;stroke-width:0.8;" x="1277.397129" xlink:href="#md9c6dd44d4" y="1152"/>
      </g>
     </g>
     <g id="text_18">
      <!-- DEEPAKNTR.NS -->
      <g transform="translate(1281.536192 1273.466406)rotate(-90)scale(0.15 -0.15)">
       <use xlink:href="#DejaVuSans-44"/>
       <use x="77.001953" xlink:href="#DejaVuSans-45"/>
       <use x="140.185547" xlink:href="#DejaVuSans-45"/>
       <use x="203.369141" xlink:href="#DejaVuSans-50"/>
       <use x="257.296875" xlink:href="#DejaVuSans-41"/>
       <use x="325.705078" xlink:href="#DejaVuSans-4b"/>
       <use x="391.28125" xlink:href="#DejaVuSans-4e"/>
       <use x="466.085938" xlink:href="#DejaVuSans-54"/>
       <use x="527.169922" xlink:href="#DejaVuSans-52"/>
       <use x="593.027344" xlink:href="#DejaVuSans-2e"/>
       <use x="624.814453" xlink:href="#DejaVuSans-4e"/>
       <use x="699.619141" xlink:href="#DejaVuSans-53"/>
      </g>
     </g>
    </g>
    <g id="xtick_19">
     <g id="line2d_19">
      <g>
       <use style="stroke:#000000;stroke-width:0.8;" x="1346.296651" xlink:href="#md9c6dd44d4" y="1152"/>
      </g>
     </g>
     <g id="text_19">
      <!-- LTI.NS -->
      <g transform="translate(1350.435713 1204.39375)rotate(-90)scale(0.15 -0.15)">
       <use xlink:href="#DejaVuSans-4c"/>
       <use x="41.962891" xlink:href="#DejaVuSans-54"/>
       <use x="103.046875" xlink:href="#DejaVuSans-49"/>
       <use x="132.539062" xlink:href="#DejaVuSans-2e"/>
       <use x="164.326172" xlink:href="#DejaVuSans-4e"/>
       <use x="239.130859" xlink:href="#DejaVuSans-53"/>
      </g>
     </g>
    </g>
    <g id="xtick_20">
     <g id="line2d_20">
      <g>
       <use style="stroke:#000000;stroke-width:0.8;" x="1415.196172" xlink:href="#md9c6dd44d4" y="1152"/>
      </g>
     </g>
     <g id="text_20">
      <!-- RELAXO.NS -->
      <g transform="translate(1419.335235 1243.895313)rotate(-90)scale(0.15 -0.15)">
       <use xlink:href="#DejaVuSans-52"/>
       <use x="69.482422" xlink:href="#DejaVuSans-45"/>
       <use x="132.666016" xlink:href="#DejaVuSans-4c"/>
       <use x="190.628906" xlink:href="#DejaVuSans-41"/>
       <use x="259.037109" xlink:href="#DejaVuSans-58"/>
       <use x="321.167969" xlink:href="#DejaVuSans-4f"/>
       <use x="395.878906" xlink:href="#DejaVuSans-2e"/>
       <use x="427.666016" xlink:href="#DejaVuSans-4e"/>
       <use x="502.470703" xlink:href="#DejaVuSans-53"/>
      </g>
     </g>
    </g>
    <g id="xtick_21">
     <g id="line2d_21">
      <g>
       <use style="stroke:#000000;stroke-width:0.8;" x="1484.095694" xlink:href="#md9c6dd44d4" y="1152"/>
      </g>
     </g>
     <g id="text_21">
      <!-- SOLARA.NS -->
      <g transform="translate(1488.234756 1244.619531)rotate(-90)scale(0.15 -0.15)">
       <use xlink:href="#DejaVuSans-53"/>
       <use x="63.476562" xlink:href="#DejaVuSans-4f"/>
       <use x="142.1875" xlink:href="#DejaVuSans-4c"/>
       <use x="200.150391" xlink:href="#DejaVuSans-41"/>
       <use x="268.558594" xlink:href="#DejaVuSans-52"/>
       <use x="334.041016" xlink:href="#DejaVuSans-41"/>
       <use x="400.699219" xlink:href="#DejaVuSans-2e"/>
       <use x="432.486328" xlink:href="#DejaVuSans-4e"/>
       <use x="507.291016" xlink:href="#DejaVuSans-53"/>
      </g>
     </g>
    </g>
    <g id="xtick_22">
     <g id="line2d_22">
      <g>
       <use style="stroke:#000000;stroke-width:0.8;" x="1552.995215" xlink:href="#md9c6dd44d4" y="1152"/>
      </g>
     </g>
     <g id="text_22">
      <!-- PIIND.NS -->
      <g transform="translate(1557.134278 1225.178125)rotate(-90)scale(0.15 -0.15)">
       <use xlink:href="#DejaVuSans-50"/>
       <use x="60.302734" xlink:href="#DejaVuSans-49"/>
       <use x="89.794922" xlink:href="#DejaVuSans-49"/>
       <use x="119.287109" xlink:href="#DejaVuSans-4e"/>
       <use x="194.091797" xlink:href="#DejaVuSans-44"/>
       <use x="271.09375" xlink:href="#DejaVuSans-2e"/>
       <use x="302.880859" xlink:href="#DejaVuSans-4e"/>
       <use x="377.685547" xlink:href="#DejaVuSans-53"/>
      </g>
     </g>
    </g>
    <g id="xtick_23">
     <g id="line2d_23">
      <g>
       <use style="stroke:#000000;stroke-width:0.8;" x="1621.894737" xlink:href="#md9c6dd44d4" y="1152"/>
      </g>
     </g>
     <g id="text_23">
      <!-- UNIDT.NS -->
      <g transform="translate(1626.033799 1230.067188)rotate(-90)scale(0.15 -0.15)">
       <use xlink:href="#DejaVuSans-55"/>
       <use x="73.193359" xlink:href="#DejaVuSans-4e"/>
       <use x="147.998047" xlink:href="#DejaVuSans-49"/>
       <use x="177.490234" xlink:href="#DejaVuSans-44"/>
       <use x="254.492188" xlink:href="#DejaVuSans-54"/>
       <use x="303.701172" xlink:href="#DejaVuSans-2e"/>
       <use x="335.488281" xlink:href="#DejaVuSans-4e"/>
       <use x="410.292969" xlink:href="#DejaVuSans-53"/>
      </g>
     </g>
    </g>
    <g id="text_24">
     <!-- Stock -->
     <g transform="translate(843.242578 1303.460938)scale(0.15 -0.15)">
      <defs>
       <path d="M 1172 4494 
L 1172 3500 
L 2356 3500 
L 2356 3053 
L 1172 3053 
L 1172 1153 
Q 1172 725 1289 603 
Q 1406 481 1766 481 
L 2356 481 
L 2356 0 
L 1766 0 
Q 1100 0 847 248 
Q 594 497 594 1153 
L 594 3053 
L 172 3053 
L 172 3500 
L 594 3500 
L 594 4494 
L 1172 4494 
z
" id="DejaVuSans-74" transform="scale(0.015625)"/>
       <path d="M 1959 3097 
Q 1497 3097 1228 2736 
Q 959 2375 959 1747 
Q 959 1119 1226 758 
Q 1494 397 1959 397 
Q 2419 397 2687 759 
Q 2956 1122 2956 1747 
Q 2956 2369 2687 2733 
Q 2419 3097 1959 3097 
z
M 1959 3584 
Q 2709 3584 3137 3096 
Q 3566 2609 3566 1747 
Q 3566 888 3137 398 
Q 2709 -91 1959 -91 
Q 1206 -91 779 398 
Q 353 888 353 1747 
Q 353 2609 779 3096 
Q 1206 3584 1959 3584 
z
" id="DejaVuSans-6f" transform="scale(0.015625)"/>
       <path d="M 3122 3366 
L 3122 2828 
Q 2878 2963 2633 3030 
Q 2388 3097 2138 3097 
Q 1578 3097 1268 2742 
Q 959 2388 959 1747 
Q 959 1106 1268 751 
Q 1578 397 2138 397 
Q 2388 397 2633 464 
Q 2878 531 3122 666 
L 3122 134 
Q 2881 22 2623 -34 
Q 2366 -91 2075 -91 
Q 1284 -91 818 406 
Q 353 903 353 1747 
Q 353 2603 823 3093 
Q 1294 3584 2113 3584 
Q 2378 3584 2631 3529 
Q 2884 3475 3122 3366 
z
" id="DejaVuSans-63" transform="scale(0.015625)"/>
       <path d="M 581 4863 
L 1159 4863 
L 1159 1991 
L 2875 3500 
L 3609 3500 
L 1753 1863 
L 3688 0 
L 2938 0 
L 1159 1709 
L 1159 0 
L 581 0 
L 581 4863 
z
" id="DejaVuSans-6b" transform="scale(0.015625)"/>
      </defs>
      <use xlink:href="#DejaVuSans-53"/>
      <use x="63.476562" xlink:href="#DejaVuSans-74"/>
      <use x="102.685547" xlink:href="#DejaVuSans-6f"/>
      <use x="163.867188" xlink:href="#DejaVuSans-63"/>
      <use x="218.847656" xlink:href="#DejaVuSans-6b"/>
     </g>
    </g>
   </g>
   <g id="matplotlib.axis_2">
    <g id="ytick_1">
     <g id="line2d_24">
      <defs>
       <path d="M 0 0 
L -3.5 0 
" id="m377057aa29" style="stroke:#000000;stroke-width:0.8;"/>
      </defs>
      <g>
       <use style="stroke:#000000;stroke-width:0.8;" x="0" xlink:href="#m377057aa29" y="1152"/>
      </g>
     </g>
     <g id="text_25">
      <!-- 0.0 -->
      <g transform="translate(-22.903125 1155.799219)scale(0.1 -0.1)">
       <defs>
        <path d="M 2034 4250 
Q 1547 4250 1301 3770 
Q 1056 3291 1056 2328 
Q 1056 1369 1301 889 
Q 1547 409 2034 409 
Q 2525 409 2770 889 
Q 3016 1369 3016 2328 
Q 3016 3291 2770 3770 
Q 2525 4250 2034 4250 
z
M 2034 4750 
Q 2819 4750 3233 4129 
Q 3647 3509 3647 2328 
Q 3647 1150 3233 529 
Q 2819 -91 2034 -91 
Q 1250 -91 836 529 
Q 422 1150 422 2328 
Q 422 3509 836 4129 
Q 1250 4750 2034 4750 
z
" id="DejaVuSans-30" transform="scale(0.015625)"/>
       </defs>
       <use xlink:href="#DejaVuSans-30"/>
       <use x="63.623047" xlink:href="#DejaVuSans-2e"/>
       <use x="95.410156" xlink:href="#DejaVuSans-30"/>
      </g>
     </g>
    </g>
    <g id="ytick_2">
     <g id="line2d_25">
      <g>
       <use style="stroke:#000000;stroke-width:0.8;" x="0" xlink:href="#m377057aa29" y="1013.513128"/>
      </g>
     </g>
     <g id="text_26">
      <!-- 0.5 -->
      <g transform="translate(-22.903125 1017.312347)scale(0.1 -0.1)">
       <defs>
        <path d="M 691 4666 
L 3169 4666 
L 3169 4134 
L 1269 4134 
L 1269 2991 
Q 1406 3038 1543 3061 
Q 1681 3084 1819 3084 
Q 2600 3084 3056 2656 
Q 3513 2228 3513 1497 
Q 3513 744 3044 326 
Q 2575 -91 1722 -91 
Q 1428 -91 1123 -41 
Q 819 9 494 109 
L 494 744 
Q 775 591 1075 516 
Q 1375 441 1709 441 
Q 2250 441 2565 725 
Q 2881 1009 2881 1497 
Q 2881 1984 2565 2268 
Q 2250 2553 1709 2553 
Q 1456 2553 1204 2497 
Q 953 2441 691 2322 
L 691 4666 
z
" id="DejaVuSans-35" transform="scale(0.015625)"/>
       </defs>
       <use xlink:href="#DejaVuSans-30"/>
       <use x="63.623047" xlink:href="#DejaVuSans-2e"/>
       <use x="95.410156" xlink:href="#DejaVuSans-35"/>
      </g>
     </g>
    </g>
    <g id="ytick_3">
     <g id="line2d_26">
      <g>
       <use style="stroke:#000000;stroke-width:0.8;" x="0" xlink:href="#m377057aa29" y="875.026256"/>
      </g>
     </g>
     <g id="text_27">
      <!-- 1.0 -->
      <g transform="translate(-22.903125 878.825474)scale(0.1 -0.1)">
       <defs>
        <path d="M 794 531 
L 1825 531 
L 1825 4091 
L 703 3866 
L 703 4441 
L 1819 4666 
L 2450 4666 
L 2450 531 
L 3481 531 
L 3481 0 
L 794 0 
L 794 531 
z
" id="DejaVuSans-31" transform="scale(0.015625)"/>
       </defs>
       <use xlink:href="#DejaVuSans-31"/>
       <use x="63.623047" xlink:href="#DejaVuSans-2e"/>
       <use x="95.410156" xlink:href="#DejaVuSans-30"/>
      </g>
     </g>
    </g>
    <g id="ytick_4">
     <g id="line2d_27">
      <g>
       <use style="stroke:#000000;stroke-width:0.8;" x="0" xlink:href="#m377057aa29" y="736.539383"/>
      </g>
     </g>
     <g id="text_28">
      <!-- 1.5 -->
      <g transform="translate(-22.903125 740.338602)scale(0.1 -0.1)">
       <use xlink:href="#DejaVuSans-31"/>
       <use x="63.623047" xlink:href="#DejaVuSans-2e"/>
       <use x="95.410156" xlink:href="#DejaVuSans-35"/>
      </g>
     </g>
    </g>
    <g id="ytick_5">
     <g id="line2d_28">
      <g>
       <use style="stroke:#000000;stroke-width:0.8;" x="0" xlink:href="#m377057aa29" y="598.052511"/>
      </g>
     </g>
     <g id="text_29">
      <!-- 2.0 -->
      <g transform="translate(-22.903125 601.85173)scale(0.1 -0.1)">
       <defs>
        <path d="M 1228 531 
L 3431 531 
L 3431 0 
L 469 0 
L 469 531 
Q 828 903 1448 1529 
Q 2069 2156 2228 2338 
Q 2531 2678 2651 2914 
Q 2772 3150 2772 3378 
Q 2772 3750 2511 3984 
Q 2250 4219 1831 4219 
Q 1534 4219 1204 4116 
Q 875 4013 500 3803 
L 500 4441 
Q 881 4594 1212 4672 
Q 1544 4750 1819 4750 
Q 2544 4750 2975 4387 
Q 3406 4025 3406 3419 
Q 3406 3131 3298 2873 
Q 3191 2616 2906 2266 
Q 2828 2175 2409 1742 
Q 1991 1309 1228 531 
z
" id="DejaVuSans-32" transform="scale(0.015625)"/>
       </defs>
       <use xlink:href="#DejaVuSans-32"/>
       <use x="63.623047" xlink:href="#DejaVuSans-2e"/>
       <use x="95.410156" xlink:href="#DejaVuSans-30"/>
      </g>
     </g>
    </g>
    <g id="ytick_6">
     <g id="line2d_29">
      <g>
       <use style="stroke:#000000;stroke-width:0.8;" x="0" xlink:href="#m377057aa29" y="459.565639"/>
      </g>
     </g>
     <g id="text_30">
      <!-- 2.5 -->
      <g transform="translate(-22.903125 463.364858)scale(0.1 -0.1)">
       <use xlink:href="#DejaVuSans-32"/>
       <use x="63.623047" xlink:href="#DejaVuSans-2e"/>
       <use x="95.410156" xlink:href="#DejaVuSans-35"/>
      </g>
     </g>
    </g>
    <g id="ytick_7">
     <g id="line2d_30">
      <g>
       <use style="stroke:#000000;stroke-width:0.8;" x="0" xlink:href="#m377057aa29" y="321.078767"/>
      </g>
     </g>
     <g id="text_31">
      <!-- 3.0 -->
      <g transform="translate(-22.903125 324.877985)scale(0.1 -0.1)">
       <defs>
        <path d="M 2597 2516 
Q 3050 2419 3304 2112 
Q 3559 1806 3559 1356 
Q 3559 666 3084 287 
Q 2609 -91 1734 -91 
Q 1441 -91 1130 -33 
Q 819 25 488 141 
L 488 750 
Q 750 597 1062 519 
Q 1375 441 1716 441 
Q 2309 441 2620 675 
Q 2931 909 2931 1356 
Q 2931 1769 2642 2001 
Q 2353 2234 1838 2234 
L 1294 2234 
L 1294 2753 
L 1863 2753 
Q 2328 2753 2575 2939 
Q 2822 3125 2822 3475 
Q 2822 3834 2567 4026 
Q 2313 4219 1838 4219 
Q 1578 4219 1281 4162 
Q 984 4106 628 3988 
L 628 4550 
Q 988 4650 1302 4700 
Q 1616 4750 1894 4750 
Q 2613 4750 3031 4423 
Q 3450 4097 3450 3541 
Q 3450 3153 3228 2886 
Q 3006 2619 2597 2516 
z
" id="DejaVuSans-33" transform="scale(0.015625)"/>
       </defs>
       <use xlink:href="#DejaVuSans-33"/>
       <use x="63.623047" xlink:href="#DejaVuSans-2e"/>
       <use x="95.410156" xlink:href="#DejaVuSans-30"/>
      </g>
     </g>
    </g>
    <g id="ytick_8">
     <g id="line2d_31">
      <g>
       <use style="stroke:#000000;stroke-width:0.8;" x="0" xlink:href="#m377057aa29" y="182.591894"/>
      </g>
     </g>
     <g id="text_32">
      <!-- 3.5 -->
      <g transform="translate(-22.903125 186.391113)scale(0.1 -0.1)">
       <use xlink:href="#DejaVuSans-33"/>
       <use x="63.623047" xlink:href="#DejaVuSans-2e"/>
       <use x="95.410156" xlink:href="#DejaVuSans-35"/>
      </g>
     </g>
    </g>
    <g id="ytick_9">
     <g id="line2d_32">
      <g>
       <use style="stroke:#000000;stroke-width:0.8;" x="0" xlink:href="#m377057aa29" y="44.105022"/>
      </g>
     </g>
     <g id="text_33">
      <!-- 4.0 -->
      <g transform="translate(-22.903125 47.904241)scale(0.1 -0.1)">
       <defs>
        <path d="M 2419 4116 
L 825 1625 
L 2419 1625 
L 2419 4116 
z
M 2253 4666 
L 3047 4666 
L 3047 1625 
L 3713 1625 
L 3713 1100 
L 3047 1100 
L 3047 0 
L 2419 0 
L 2419 1100 
L 313 1100 
L 313 1709 
L 2253 4666 
z
" id="DejaVuSans-34" transform="scale(0.015625)"/>
       </defs>
       <use xlink:href="#DejaVuSans-34"/>
       <use x="63.623047" xlink:href="#DejaVuSans-2e"/>
       <use x="95.410156" xlink:href="#DejaVuSans-30"/>
      </g>
     </g>
    </g>
    <g id="text_34">
     <!-- Return -->
     <g transform="translate(-30.022656 600.887109)rotate(-90)scale(0.15 -0.15)">
      <defs>
       <path d="M 3597 1894 
L 3597 1613 
L 953 1613 
Q 991 1019 1311 708 
Q 1631 397 2203 397 
Q 2534 397 2845 478 
Q 3156 559 3463 722 
L 3463 178 
Q 3153 47 2828 -22 
Q 2503 -91 2169 -91 
Q 1331 -91 842 396 
Q 353 884 353 1716 
Q 353 2575 817 3079 
Q 1281 3584 2069 3584 
Q 2775 3584 3186 3129 
Q 3597 2675 3597 1894 
z
M 3022 2063 
Q 3016 2534 2758 2815 
Q 2500 3097 2075 3097 
Q 1594 3097 1305 2825 
Q 1016 2553 972 2059 
L 3022 2063 
z
" id="DejaVuSans-65" transform="scale(0.015625)"/>
       <path d="M 544 1381 
L 544 3500 
L 1119 3500 
L 1119 1403 
Q 1119 906 1312 657 
Q 1506 409 1894 409 
Q 2359 409 2629 706 
Q 2900 1003 2900 1516 
L 2900 3500 
L 3475 3500 
L 3475 0 
L 2900 0 
L 2900 538 
Q 2691 219 2414 64 
Q 2138 -91 1772 -91 
Q 1169 -91 856 284 
Q 544 659 544 1381 
z
M 1991 3584 
L 1991 3584 
z
" id="DejaVuSans-75" transform="scale(0.015625)"/>
       <path d="M 2631 2963 
Q 2534 3019 2420 3045 
Q 2306 3072 2169 3072 
Q 1681 3072 1420 2755 
Q 1159 2438 1159 1844 
L 1159 0 
L 581 0 
L 581 3500 
L 1159 3500 
L 1159 2956 
Q 1341 3275 1631 3429 
Q 1922 3584 2338 3584 
Q 2397 3584 2469 3576 
Q 2541 3569 2628 3553 
L 2631 2963 
z
" id="DejaVuSans-72" transform="scale(0.015625)"/>
       <path d="M 3513 2113 
L 3513 0 
L 2938 0 
L 2938 2094 
Q 2938 2591 2744 2837 
Q 2550 3084 2163 3084 
Q 1697 3084 1428 2787 
Q 1159 2491 1159 1978 
L 1159 0 
L 581 0 
L 581 3500 
L 1159 3500 
L 1159 2956 
Q 1366 3272 1645 3428 
Q 1925 3584 2291 3584 
Q 2894 3584 3203 3211 
Q 3513 2838 3513 2113 
z
" id="DejaVuSans-6e" transform="scale(0.015625)"/>
      </defs>
      <use xlink:href="#DejaVuSans-52"/>
      <use x="64.982422" xlink:href="#DejaVuSans-65"/>
      <use x="126.505859" xlink:href="#DejaVuSans-74"/>
      <use x="165.714844" xlink:href="#DejaVuSans-75"/>
      <use x="229.09375" xlink:href="#DejaVuSans-72"/>
      <use x="268.457031" xlink:href="#DejaVuSans-6e"/>
     </g>
    </g>
   </g>
   <g id="patch_49">
    <path d="M 0 1152 
L 0 0 
" style="fill:none;stroke:#000000;stroke-linecap:square;stroke-linejoin:miter;stroke-width:0.8;"/>
   </g>
   <g id="patch_50">
    <path d="M 1728 1152 
L 1728 0 
" style="fill:none;stroke:#000000;stroke-linecap:square;stroke-linejoin:miter;stroke-width:0.8;"/>
   </g>
   <g id="patch_51">
    <path d="M -0 1152 
L 1728 1152 
" style="fill:none;stroke:#000000;stroke-linecap:square;stroke-linejoin:miter;stroke-width:0.8;"/>
   </g>
   <g id="patch_52">
    <path d="M -0 0 
L 1728 0 
" style="fill:none;stroke:#000000;stroke-linecap:square;stroke-linejoin:miter;stroke-width:0.8;"/>
   </g>
   <g id="text_35">
    <!-- 4.0 -->
    <g transform="translate(97.492823 4.139062)scale(0.15 -0.15)">
     <use xlink:href="#DejaVuSans-34"/>
     <use x="63.623047" xlink:href="#DejaVuSans-2e"/>
     <use x="95.410156" xlink:href="#DejaVuSans-30"/>
    </g>
   </g>
   <g id="text_36">
    <!-- 1.9 -->
    <g transform="translate(166.392344 614.74984)scale(0.15 -0.15)">
     <defs>
      <path d="M 703 97 
L 703 672 
Q 941 559 1184 500 
Q 1428 441 1663 441 
Q 2288 441 2617 861 
Q 2947 1281 2994 2138 
Q 2813 1869 2534 1725 
Q 2256 1581 1919 1581 
Q 1219 1581 811 2004 
Q 403 2428 403 3163 
Q 403 3881 828 4315 
Q 1253 4750 1959 4750 
Q 2769 4750 3195 4129 
Q 3622 3509 3622 2328 
Q 3622 1225 3098 567 
Q 2575 -91 1691 -91 
Q 1453 -91 1209 -44 
Q 966 3 703 97 
z
M 1959 2075 
Q 2384 2075 2632 2365 
Q 2881 2656 2881 3163 
Q 2881 3666 2632 3958 
Q 2384 4250 1959 4250 
Q 1534 4250 1286 3958 
Q 1038 3666 1038 3163 
Q 1038 2656 1286 2365 
Q 1534 2075 1959 2075 
z
" id="DejaVuSans-39" transform="scale(0.015625)"/>
     </defs>
     <use xlink:href="#DejaVuSans-31"/>
     <use x="63.623047" xlink:href="#DejaVuSans-2e"/>
     <use x="95.410156" xlink:href="#DejaVuSans-39"/>
    </g>
   </g>
   <g id="text_37">
    <!-- 1.7 -->
    <g transform="translate(235.291866 659.940738)scale(0.15 -0.15)">
     <defs>
      <path d="M 525 4666 
L 3525 4666 
L 3525 4397 
L 1831 0 
L 1172 0 
L 2766 4134 
L 525 4134 
L 525 4666 
z
" id="DejaVuSans-37" transform="scale(0.015625)"/>
     </defs>
     <use xlink:href="#DejaVuSans-31"/>
     <use x="63.623047" xlink:href="#DejaVuSans-2e"/>
     <use x="95.410156" xlink:href="#DejaVuSans-37"/>
    </g>
   </g>
   <g id="text_38">
    <!-- 1.4 -->
    <g transform="translate(304.191388 734.504701)scale(0.15 -0.15)">
     <use xlink:href="#DejaVuSans-31"/>
     <use x="63.623047" xlink:href="#DejaVuSans-2e"/>
     <use x="95.410156" xlink:href="#DejaVuSans-34"/>
    </g>
   </g>
   <g id="text_39">
    <!-- 1.3 -->
    <g transform="translate(373.090909 790.165206)scale(0.15 -0.15)">
     <use xlink:href="#DejaVuSans-31"/>
     <use x="63.623047" xlink:href="#DejaVuSans-2e"/>
     <use x="95.410156" xlink:href="#DejaVuSans-33"/>
    </g>
   </g>
   <g id="text_40">
    <!-- 1.2 -->
    <g transform="translate(441.990431 807.623277)scale(0.15 -0.15)">
     <use xlink:href="#DejaVuSans-31"/>
     <use x="63.623047" xlink:href="#DejaVuSans-2e"/>
     <use x="95.410156" xlink:href="#DejaVuSans-32"/>
    </g>
   </g>
   <g id="text_41">
    <!-- 1.2 -->
    <g transform="translate(510.889952 814.204588)scale(0.15 -0.15)">
     <use xlink:href="#DejaVuSans-31"/>
     <use x="63.623047" xlink:href="#DejaVuSans-2e"/>
     <use x="95.410156" xlink:href="#DejaVuSans-32"/>
    </g>
   </g>
   <g id="text_42">
    <!-- 1.1 -->
    <g transform="translate(579.789474 827.341038)scale(0.15 -0.15)">
     <use xlink:href="#DejaVuSans-31"/>
     <use x="63.623047" xlink:href="#DejaVuSans-2e"/>
     <use x="95.410156" xlink:href="#DejaVuSans-31"/>
    </g>
   </g>
   <g id="text_43">
    <!-- 1.1 -->
    <g transform="translate(648.688995 828.396723)scale(0.15 -0.15)">
     <use xlink:href="#DejaVuSans-31"/>
     <use x="63.623047" xlink:href="#DejaVuSans-2e"/>
     <use x="95.410156" xlink:href="#DejaVuSans-31"/>
    </g>
   </g>
   <g id="text_44">
    <!-- 1.1 -->
    <g transform="translate(717.588517 830.586616)scale(0.15 -0.15)">
     <use xlink:href="#DejaVuSans-31"/>
     <use x="63.623047" xlink:href="#DejaVuSans-2e"/>
     <use x="95.410156" xlink:href="#DejaVuSans-31"/>
    </g>
   </g>
   <g id="text_45">
    <!-- 1.0 -->
    <g transform="translate(786.488038 862.643973)scale(0.15 -0.15)">
     <use xlink:href="#DejaVuSans-31"/>
     <use x="63.623047" xlink:href="#DejaVuSans-2e"/>
     <use x="95.410156" xlink:href="#DejaVuSans-30"/>
    </g>
   </g>
   <g id="text_46">
    <!-- 1.0 -->
    <g transform="translate(855.38756 870.67358)scale(0.15 -0.15)">
     <use xlink:href="#DejaVuSans-31"/>
     <use x="63.623047" xlink:href="#DejaVuSans-2e"/>
     <use x="95.410156" xlink:href="#DejaVuSans-30"/>
    </g>
   </g>
   <g id="text_47">
    <!-- 0.9 -->
    <g transform="translate(924.287081 883.181853)scale(0.15 -0.15)">
     <use xlink:href="#DejaVuSans-30"/>
     <use x="63.623047" xlink:href="#DejaVuSans-2e"/>
     <use x="95.410156" xlink:href="#DejaVuSans-39"/>
    </g>
   </g>
   <g id="text_48">
    <!-- 0.9 -->
    <g transform="translate(993.186603 897.068624)scale(0.15 -0.15)">
     <use xlink:href="#DejaVuSans-30"/>
     <use x="63.623047" xlink:href="#DejaVuSans-2e"/>
     <use x="95.410156" xlink:href="#DejaVuSans-39"/>
    </g>
   </g>
   <g id="text_49">
    <!-- 0.9 -->
    <g transform="translate(1062.086124 906.814084)scale(0.15 -0.15)">
     <use xlink:href="#DejaVuSans-30"/>
     <use x="63.623047" xlink:href="#DejaVuSans-2e"/>
     <use x="95.410156" xlink:href="#DejaVuSans-39"/>
    </g>
   </g>
   <g id="text_50">
    <!-- 0.8 -->
    <g transform="translate(1130.985646 914.997827)scale(0.15 -0.15)">
     <defs>
      <path d="M 2034 2216 
Q 1584 2216 1326 1975 
Q 1069 1734 1069 1313 
Q 1069 891 1326 650 
Q 1584 409 2034 409 
Q 2484 409 2743 651 
Q 3003 894 3003 1313 
Q 3003 1734 2745 1975 
Q 2488 2216 2034 2216 
z
M 1403 2484 
Q 997 2584 770 2862 
Q 544 3141 544 3541 
Q 544 4100 942 4425 
Q 1341 4750 2034 4750 
Q 2731 4750 3128 4425 
Q 3525 4100 3525 3541 
Q 3525 3141 3298 2862 
Q 3072 2584 2669 2484 
Q 3125 2378 3379 2068 
Q 3634 1759 3634 1313 
Q 3634 634 3220 271 
Q 2806 -91 2034 -91 
Q 1263 -91 848 271 
Q 434 634 434 1313 
Q 434 1759 690 2068 
Q 947 2378 1403 2484 
z
M 1172 3481 
Q 1172 3119 1398 2916 
Q 1625 2713 2034 2713 
Q 2441 2713 2670 2916 
Q 2900 3119 2900 3481 
Q 2900 3844 2670 4047 
Q 2441 4250 2034 4250 
Q 1625 4250 1398 4047 
Q 1172 3844 1172 3481 
z
" id="DejaVuSans-38" transform="scale(0.015625)"/>
     </defs>
     <use xlink:href="#DejaVuSans-30"/>
     <use x="63.623047" xlink:href="#DejaVuSans-2e"/>
     <use x="95.410156" xlink:href="#DejaVuSans-38"/>
    </g>
   </g>
   <g id="text_51">
    <!-- 0.6 -->
    <g transform="translate(1199.885167 985.277976)scale(0.15 -0.15)">
     <defs>
      <path d="M 2113 2584 
Q 1688 2584 1439 2293 
Q 1191 2003 1191 1497 
Q 1191 994 1439 701 
Q 1688 409 2113 409 
Q 2538 409 2786 701 
Q 3034 994 3034 1497 
Q 3034 2003 2786 2293 
Q 2538 2584 2113 2584 
z
M 3366 4563 
L 3366 3988 
Q 3128 4100 2886 4159 
Q 2644 4219 2406 4219 
Q 1781 4219 1451 3797 
Q 1122 3375 1075 2522 
Q 1259 2794 1537 2939 
Q 1816 3084 2150 3084 
Q 2853 3084 3261 2657 
Q 3669 2231 3669 1497 
Q 3669 778 3244 343 
Q 2819 -91 2113 -91 
Q 1303 -91 875 529 
Q 447 1150 447 2328 
Q 447 3434 972 4092 
Q 1497 4750 2381 4750 
Q 2619 4750 2861 4703 
Q 3103 4656 3366 4563 
z
" id="DejaVuSans-36" transform="scale(0.015625)"/>
     </defs>
     <use xlink:href="#DejaVuSans-30"/>
     <use x="63.623047" xlink:href="#DejaVuSans-2e"/>
     <use x="95.410156" xlink:href="#DejaVuSans-36"/>
    </g>
   </g>
   <g id="text_52">
    <!-- 0.6 -->
    <g transform="translate(1268.784689 987.534758)scale(0.15 -0.15)">
     <use xlink:href="#DejaVuSans-30"/>
     <use x="63.623047" xlink:href="#DejaVuSans-2e"/>
     <use x="95.410156" xlink:href="#DejaVuSans-36"/>
    </g>
   </g>
   <g id="text_53">
    <!-- 0.6 -->
    <g transform="translate(1337.684211 990.175425)scale(0.15 -0.15)">
     <use xlink:href="#DejaVuSans-30"/>
     <use x="63.623047" xlink:href="#DejaVuSans-2e"/>
     <use x="95.410156" xlink:href="#DejaVuSans-36"/>
    </g>
   </g>
   <g id="text_54">
    <!-- 0.6 -->
    <g transform="translate(1406.583732 995.31135)scale(0.15 -0.15)">
     <use xlink:href="#DejaVuSans-30"/>
     <use x="63.623047" xlink:href="#DejaVuSans-2e"/>
     <use x="95.410156" xlink:href="#DejaVuSans-36"/>
    </g>
   </g>
   <g id="text_55">
    <!-- 0.5 -->
    <g transform="translate(1475.483254 997.233686)scale(0.15 -0.15)">
     <use xlink:href="#DejaVuSans-30"/>
     <use x="63.623047" xlink:href="#DejaVuSans-2e"/>
     <use x="95.410156" xlink:href="#DejaVuSans-35"/>
    </g>
   </g>
   <g id="text_56">
    <!-- 0.4 -->
    <g transform="translate(1544.382775 1026.816144)scale(0.15 -0.15)">
     <use xlink:href="#DejaVuSans-30"/>
     <use x="63.623047" xlink:href="#DejaVuSans-2e"/>
     <use x="95.410156" xlink:href="#DejaVuSans-34"/>
    </g>
   </g>
   <g id="text_57">
    <!-- 0.4 -->
    <g transform="translate(1613.282297 1034.205942)scale(0.15 -0.15)">
     <use xlink:href="#DejaVuSans-30"/>
     <use x="63.623047" xlink:href="#DejaVuSans-2e"/>
     <use x="95.410156" xlink:href="#DejaVuSans-34"/>
    </g>
   </g>
   <g id="text_58">
    <!-- 0.1 -->
    <g transform="translate(97.492823 1122.694483)scale(0.15 -0.15)">
     <use xlink:href="#DejaVuSans-30"/>
     <use x="63.623047" xlink:href="#DejaVuSans-2e"/>
     <use x="95.410156" xlink:href="#DejaVuSans-31"/>
    </g>
   </g>
   <g id="text_59">
    <!-- 0.1 -->
    <g transform="translate(166.392344 1120.367903)scale(0.15 -0.15)">
     <use xlink:href="#DejaVuSans-30"/>
     <use x="63.623047" xlink:href="#DejaVuSans-2e"/>
     <use x="95.410156" xlink:href="#DejaVuSans-31"/>
    </g>
   </g>
   <g id="text_60">
    <!-- 0.1 -->
    <g transform="translate(235.291866 1132.000801)scale(0.15 -0.15)">
     <use xlink:href="#DejaVuSans-30"/>
     <use x="63.623047" xlink:href="#DejaVuSans-2e"/>
     <use x="95.410156" xlink:href="#DejaVuSans-31"/>
    </g>
   </g>
   <g id="text_61">
    <!-- 0.1 -->
    <g transform="translate(304.191388 1120.367903)scale(0.15 -0.15)">
     <use xlink:href="#DejaVuSans-30"/>
     <use x="63.623047" xlink:href="#DejaVuSans-2e"/>
     <use x="95.410156" xlink:href="#DejaVuSans-31"/>
    </g>
   </g>
   <g id="text_62">
    <!-- 0.1 -->
    <g transform="translate(373.090909 1127.347642)scale(0.15 -0.15)">
     <use xlink:href="#DejaVuSans-30"/>
     <use x="63.623047" xlink:href="#DejaVuSans-2e"/>
     <use x="95.410156" xlink:href="#DejaVuSans-31"/>
    </g>
   </g>
   <g id="text_63">
    <!-- 0.1 -->
    <g transform="translate(441.990431 1127.347642)scale(0.15 -0.15)">
     <use xlink:href="#DejaVuSans-30"/>
     <use x="63.623047" xlink:href="#DejaVuSans-2e"/>
     <use x="95.410156" xlink:href="#DejaVuSans-31"/>
    </g>
   </g>
   <g id="text_64">
    <!-- 0.1 -->
    <g transform="translate(510.889952 1120.367903)scale(0.15 -0.15)">
     <use xlink:href="#DejaVuSans-30"/>
     <use x="63.623047" xlink:href="#DejaVuSans-2e"/>
     <use x="95.410156" xlink:href="#DejaVuSans-31"/>
    </g>
   </g>
   <g id="text_65">
    <!-- 0.1 -->
    <g transform="translate(579.789474 1125.021062)scale(0.15 -0.15)">
     <use xlink:href="#DejaVuSans-30"/>
     <use x="63.623047" xlink:href="#DejaVuSans-2e"/>
     <use x="95.410156" xlink:href="#DejaVuSans-31"/>
    </g>
   </g>
   <g id="text_66">
    <!-- 0.1 -->
    <g transform="translate(648.688995 1120.367903)scale(0.15 -0.15)">
     <use xlink:href="#DejaVuSans-30"/>
     <use x="63.623047" xlink:href="#DejaVuSans-2e"/>
     <use x="95.410156" xlink:href="#DejaVuSans-31"/>
    </g>
   </g>
   <g id="text_67">
    <!-- 0.1 -->
    <g transform="translate(717.588517 1122.694483)scale(0.15 -0.15)">
     <use xlink:href="#DejaVuSans-30"/>
     <use x="63.623047" xlink:href="#DejaVuSans-2e"/>
     <use x="95.410156" xlink:href="#DejaVuSans-31"/>
    </g>
   </g>
   <g id="text_68">
    <!-- 0.1 -->
    <g transform="translate(786.488038 1125.021062)scale(0.15 -0.15)">
     <use xlink:href="#DejaVuSans-30"/>
     <use x="63.623047" xlink:href="#DejaVuSans-2e"/>
     <use x="95.410156" xlink:href="#DejaVuSans-31"/>
    </g>
   </g>
   <g id="text_69">
    <!-- 0.1 -->
    <g transform="translate(855.38756 1125.021062)scale(0.15 -0.15)">
     <use xlink:href="#DejaVuSans-30"/>
     <use x="63.623047" xlink:href="#DejaVuSans-2e"/>
     <use x="95.410156" xlink:href="#DejaVuSans-31"/>
    </g>
   </g>
   <g id="text_70">
    <!-- 0.1 -->
    <g transform="translate(924.287081 1138.980539)scale(0.15 -0.15)">
     <use xlink:href="#DejaVuSans-30"/>
     <use x="63.623047" xlink:href="#DejaVuSans-2e"/>
     <use x="95.410156" xlink:href="#DejaVuSans-31"/>
    </g>
   </g>
   <g id="text_71">
    <!-- 0.1 -->
    <g transform="translate(993.186603 1125.021062)scale(0.15 -0.15)">
     <use xlink:href="#DejaVuSans-30"/>
     <use x="63.623047" xlink:href="#DejaVuSans-2e"/>
     <use x="95.410156" xlink:href="#DejaVuSans-31"/>
    </g>
   </g>
   <g id="text_72">
    <!-- 0.1 -->
    <g transform="translate(1062.086124 1122.694483)scale(0.15 -0.15)">
     <use xlink:href="#DejaVuSans-30"/>
     <use x="63.623047" xlink:href="#DejaVuSans-2e"/>
     <use x="95.410156" xlink:href="#DejaVuSans-31"/>
    </g>
   </g>
   <g id="text_73">
    <!-- 0.1 -->
    <g transform="translate(1130.985646 1125.021062)scale(0.15 -0.15)">
     <use xlink:href="#DejaVuSans-30"/>
     <use x="63.623047" xlink:href="#DejaVuSans-2e"/>
     <use x="95.410156" xlink:href="#DejaVuSans-31"/>
    </g>
   </g>
   <g id="text_74">
    <!-- 0.1 -->
    <g transform="translate(1199.885167 1125.021062)scale(0.15 -0.15)">
     <use xlink:href="#DejaVuSans-30"/>
     <use x="63.623047" xlink:href="#DejaVuSans-2e"/>
     <use x="95.410156" xlink:href="#DejaVuSans-31"/>
    </g>
   </g>
   <g id="text_75">
    <!-- 0.1 -->
    <g transform="translate(1268.784689 1125.021062)scale(0.15 -0.15)">
     <use xlink:href="#DejaVuSans-30"/>
     <use x="63.623047" xlink:href="#DejaVuSans-2e"/>
     <use x="95.410156" xlink:href="#DejaVuSans-31"/>
    </g>
   </g>
   <g id="text_76">
    <!-- 0.1 -->
    <g transform="translate(1337.684211 1125.021062)scale(0.15 -0.15)">
     <use xlink:href="#DejaVuSans-30"/>
     <use x="63.623047" xlink:href="#DejaVuSans-2e"/>
     <use x="95.410156" xlink:href="#DejaVuSans-31"/>
    </g>
   </g>
   <g id="text_77">
    <!-- 0.1 -->
    <g transform="translate(1406.583732 1129.674221)scale(0.15 -0.15)">
     <use xlink:href="#DejaVuSans-30"/>
     <use x="63.623047" xlink:href="#DejaVuSans-2e"/>
     <use x="95.410156" xlink:href="#DejaVuSans-31"/>
    </g>
   </g>
   <g id="text_78">
    <!-- 0.1 -->
    <g transform="translate(1475.483254 1125.021062)scale(0.15 -0.15)">
     <use xlink:href="#DejaVuSans-30"/>
     <use x="63.623047" xlink:href="#DejaVuSans-2e"/>
     <use x="95.410156" xlink:href="#DejaVuSans-31"/>
    </g>
   </g>
   <g id="text_79">
    <!-- 0.1 -->
    <g transform="translate(1544.382775 1127.347642)scale(0.15 -0.15)">
     <use xlink:href="#DejaVuSans-30"/>
     <use x="63.623047" xlink:href="#DejaVuSans-2e"/>
     <use x="95.410156" xlink:href="#DejaVuSans-31"/>
    </g>
   </g>
   <g id="text_80">
    <!-- 0.1 -->
    <g transform="translate(1613.282297 1132.000801)scale(0.15 -0.15)">
     <use xlink:href="#DejaVuSans-30"/>
     <use x="63.623047" xlink:href="#DejaVuSans-2e"/>
     <use x="95.410156" xlink:href="#DejaVuSans-31"/>
    </g>
   </g>
   <g id="text_81">
    <!-- Scrip vs. Annualised return &amp; Expected return [Equity Risk Premium based] -->
    <g transform="translate(298.727344 -6.239063)scale(0.3 -0.3)">
     <defs>
      <path d="M 603 3500 
L 1178 3500 
L 1178 0 
L 603 0 
L 603 3500 
z
M 603 4863 
L 1178 4863 
L 1178 4134 
L 603 4134 
L 603 4863 
z
" id="DejaVuSans-69" transform="scale(0.015625)"/>
      <path d="M 1159 525 
L 1159 -1331 
L 581 -1331 
L 581 3500 
L 1159 3500 
L 1159 2969 
Q 1341 3281 1617 3432 
Q 1894 3584 2278 3584 
Q 2916 3584 3314 3078 
Q 3713 2572 3713 1747 
Q 3713 922 3314 415 
Q 2916 -91 2278 -91 
Q 1894 -91 1617 61 
Q 1341 213 1159 525 
z
M 3116 1747 
Q 3116 2381 2855 2742 
Q 2594 3103 2138 3103 
Q 1681 3103 1420 2742 
Q 1159 2381 1159 1747 
Q 1159 1113 1420 752 
Q 1681 391 2138 391 
Q 2594 391 2855 752 
Q 3116 1113 3116 1747 
z
" id="DejaVuSans-70" transform="scale(0.015625)"/>
      <path id="DejaVuSans-20" transform="scale(0.015625)"/>
      <path d="M 191 3500 
L 800 3500 
L 1894 563 
L 2988 3500 
L 3597 3500 
L 2284 0 
L 1503 0 
L 191 3500 
z
" id="DejaVuSans-76" transform="scale(0.015625)"/>
      <path d="M 2834 3397 
L 2834 2853 
Q 2591 2978 2328 3040 
Q 2066 3103 1784 3103 
Q 1356 3103 1142 2972 
Q 928 2841 928 2578 
Q 928 2378 1081 2264 
Q 1234 2150 1697 2047 
L 1894 2003 
Q 2506 1872 2764 1633 
Q 3022 1394 3022 966 
Q 3022 478 2636 193 
Q 2250 -91 1575 -91 
Q 1294 -91 989 -36 
Q 684 19 347 128 
L 347 722 
Q 666 556 975 473 
Q 1284 391 1588 391 
Q 1994 391 2212 530 
Q 2431 669 2431 922 
Q 2431 1156 2273 1281 
Q 2116 1406 1581 1522 
L 1381 1569 
Q 847 1681 609 1914 
Q 372 2147 372 2553 
Q 372 3047 722 3315 
Q 1072 3584 1716 3584 
Q 2034 3584 2315 3537 
Q 2597 3491 2834 3397 
z
" id="DejaVuSans-73" transform="scale(0.015625)"/>
      <path d="M 2194 1759 
Q 1497 1759 1228 1600 
Q 959 1441 959 1056 
Q 959 750 1161 570 
Q 1363 391 1709 391 
Q 2188 391 2477 730 
Q 2766 1069 2766 1631 
L 2766 1759 
L 2194 1759 
z
M 3341 1997 
L 3341 0 
L 2766 0 
L 2766 531 
Q 2569 213 2275 61 
Q 1981 -91 1556 -91 
Q 1019 -91 701 211 
Q 384 513 384 1019 
Q 384 1609 779 1909 
Q 1175 2209 1959 2209 
L 2766 2209 
L 2766 2266 
Q 2766 2663 2505 2880 
Q 2244 3097 1772 3097 
Q 1472 3097 1187 3025 
Q 903 2953 641 2809 
L 641 3341 
Q 956 3463 1253 3523 
Q 1550 3584 1831 3584 
Q 2591 3584 2966 3190 
Q 3341 2797 3341 1997 
z
" id="DejaVuSans-61" transform="scale(0.015625)"/>
      <path d="M 603 4863 
L 1178 4863 
L 1178 0 
L 603 0 
L 603 4863 
z
" id="DejaVuSans-6c" transform="scale(0.015625)"/>
      <path d="M 2906 2969 
L 2906 4863 
L 3481 4863 
L 3481 0 
L 2906 0 
L 2906 525 
Q 2725 213 2448 61 
Q 2172 -91 1784 -91 
Q 1150 -91 751 415 
Q 353 922 353 1747 
Q 353 2572 751 3078 
Q 1150 3584 1784 3584 
Q 2172 3584 2448 3432 
Q 2725 3281 2906 2969 
z
M 947 1747 
Q 947 1113 1208 752 
Q 1469 391 1925 391 
Q 2381 391 2643 752 
Q 2906 1113 2906 1747 
Q 2906 2381 2643 2742 
Q 2381 3103 1925 3103 
Q 1469 3103 1208 2742 
Q 947 2381 947 1747 
z
" id="DejaVuSans-64" transform="scale(0.015625)"/>
      <path d="M 1556 2509 
Q 1272 2256 1139 2004 
Q 1006 1753 1006 1478 
Q 1006 1022 1337 719 
Q 1669 416 2169 416 
Q 2466 416 2725 514 
Q 2984 613 3213 813 
L 1556 2509 
z
M 1997 2859 
L 3584 1234 
Q 3769 1513 3872 1830 
Q 3975 2147 3994 2503 
L 4575 2503 
Q 4538 2091 4375 1687 
Q 4213 1284 3922 891 
L 4794 0 
L 4006 0 
L 3559 459 
Q 3234 181 2878 45 
Q 2522 -91 2113 -91 
Q 1359 -91 881 339 
Q 403 769 403 1441 
Q 403 1841 612 2192 
Q 822 2544 1241 2853 
Q 1091 3050 1012 3245 
Q 934 3441 934 3628 
Q 934 4134 1281 4442 
Q 1628 4750 2203 4750 
Q 2463 4750 2720 4694 
Q 2978 4638 3244 4525 
L 3244 3956 
Q 2972 4103 2725 4179 
Q 2478 4256 2266 4256 
Q 1938 4256 1733 4082 
Q 1528 3909 1528 3634 
Q 1528 3475 1620 3314 
Q 1713 3153 1997 2859 
z
" id="DejaVuSans-26" transform="scale(0.015625)"/>
      <path d="M 3513 3500 
L 2247 1797 
L 3578 0 
L 2900 0 
L 1881 1375 
L 863 0 
L 184 0 
L 1544 1831 
L 300 3500 
L 978 3500 
L 1906 2253 
L 2834 3500 
L 3513 3500 
z
" id="DejaVuSans-78" transform="scale(0.015625)"/>
      <path d="M 550 4863 
L 1875 4863 
L 1875 4416 
L 1125 4416 
L 1125 -397 
L 1875 -397 
L 1875 -844 
L 550 -844 
L 550 4863 
z
" id="DejaVuSans-5b" transform="scale(0.015625)"/>
      <path d="M 947 1747 
Q 947 1113 1208 752 
Q 1469 391 1925 391 
Q 2381 391 2643 752 
Q 2906 1113 2906 1747 
Q 2906 2381 2643 2742 
Q 2381 3103 1925 3103 
Q 1469 3103 1208 2742 
Q 947 2381 947 1747 
z
M 2906 525 
Q 2725 213 2448 61 
Q 2172 -91 1784 -91 
Q 1150 -91 751 415 
Q 353 922 353 1747 
Q 353 2572 751 3078 
Q 1150 3584 1784 3584 
Q 2172 3584 2448 3432 
Q 2725 3281 2906 2969 
L 2906 3500 
L 3481 3500 
L 3481 -1331 
L 2906 -1331 
L 2906 525 
z
" id="DejaVuSans-71" transform="scale(0.015625)"/>
      <path d="M 2059 -325 
Q 1816 -950 1584 -1140 
Q 1353 -1331 966 -1331 
L 506 -1331 
L 506 -850 
L 844 -850 
Q 1081 -850 1212 -737 
Q 1344 -625 1503 -206 
L 1606 56 
L 191 3500 
L 800 3500 
L 1894 763 
L 2988 3500 
L 3597 3500 
L 2059 -325 
z
" id="DejaVuSans-79" transform="scale(0.015625)"/>
      <path d="M 3328 2828 
Q 3544 3216 3844 3400 
Q 4144 3584 4550 3584 
Q 5097 3584 5394 3201 
Q 5691 2819 5691 2113 
L 5691 0 
L 5113 0 
L 5113 2094 
Q 5113 2597 4934 2840 
Q 4756 3084 4391 3084 
Q 3944 3084 3684 2787 
Q 3425 2491 3425 1978 
L 3425 0 
L 2847 0 
L 2847 2094 
Q 2847 2600 2669 2842 
Q 2491 3084 2119 3084 
Q 1678 3084 1418 2786 
Q 1159 2488 1159 1978 
L 1159 0 
L 581 0 
L 581 3500 
L 1159 3500 
L 1159 2956 
Q 1356 3278 1631 3431 
Q 1906 3584 2284 3584 
Q 2666 3584 2933 3390 
Q 3200 3197 3328 2828 
z
" id="DejaVuSans-6d" transform="scale(0.015625)"/>
      <path d="M 3116 1747 
Q 3116 2381 2855 2742 
Q 2594 3103 2138 3103 
Q 1681 3103 1420 2742 
Q 1159 2381 1159 1747 
Q 1159 1113 1420 752 
Q 1681 391 2138 391 
Q 2594 391 2855 752 
Q 3116 1113 3116 1747 
z
M 1159 2969 
Q 1341 3281 1617 3432 
Q 1894 3584 2278 3584 
Q 2916 3584 3314 3078 
Q 3713 2572 3713 1747 
Q 3713 922 3314 415 
Q 2916 -91 2278 -91 
Q 1894 -91 1617 61 
Q 1341 213 1159 525 
L 1159 0 
L 581 0 
L 581 4863 
L 1159 4863 
L 1159 2969 
z
" id="DejaVuSans-62" transform="scale(0.015625)"/>
      <path d="M 1947 4863 
L 1947 -844 
L 622 -844 
L 622 -397 
L 1369 -397 
L 1369 4416 
L 622 4416 
L 622 4863 
L 1947 4863 
z
" id="DejaVuSans-5d" transform="scale(0.015625)"/>
     </defs>
     <use xlink:href="#DejaVuSans-53"/>
     <use x="63.476562" xlink:href="#DejaVuSans-63"/>
     <use x="118.457031" xlink:href="#DejaVuSans-72"/>
     <use x="159.570312" xlink:href="#DejaVuSans-69"/>
     <use x="187.353516" xlink:href="#DejaVuSans-70"/>
     <use x="250.830078" xlink:href="#DejaVuSans-20"/>
     <use x="282.617188" xlink:href="#DejaVuSans-76"/>
     <use x="341.796875" xlink:href="#DejaVuSans-73"/>
     <use x="393.896484" xlink:href="#DejaVuSans-2e"/>
     <use x="425.683594" xlink:href="#DejaVuSans-20"/>
     <use x="457.470703" xlink:href="#DejaVuSans-41"/>
     <use x="525.878906" xlink:href="#DejaVuSans-6e"/>
     <use x="589.257812" xlink:href="#DejaVuSans-6e"/>
     <use x="652.636719" xlink:href="#DejaVuSans-75"/>
     <use x="716.015625" xlink:href="#DejaVuSans-61"/>
     <use x="777.294922" xlink:href="#DejaVuSans-6c"/>
     <use x="805.078125" xlink:href="#DejaVuSans-69"/>
     <use x="832.861328" xlink:href="#DejaVuSans-73"/>
     <use x="884.960938" xlink:href="#DejaVuSans-65"/>
     <use x="946.484375" xlink:href="#DejaVuSans-64"/>
     <use x="1009.960938" xlink:href="#DejaVuSans-20"/>
     <use x="1041.748047" xlink:href="#DejaVuSans-72"/>
     <use x="1080.611328" xlink:href="#DejaVuSans-65"/>
     <use x="1142.134766" xlink:href="#DejaVuSans-74"/>
     <use x="1181.34375" xlink:href="#DejaVuSans-75"/>
     <use x="1244.722656" xlink:href="#DejaVuSans-72"/>
     <use x="1284.085938" xlink:href="#DejaVuSans-6e"/>
     <use x="1347.464844" xlink:href="#DejaVuSans-20"/>
     <use x="1379.251953" xlink:href="#DejaVuSans-26"/>
     <use x="1457.230469" xlink:href="#DejaVuSans-20"/>
     <use x="1489.017578" xlink:href="#DejaVuSans-45"/>
     <use x="1552.201172" xlink:href="#DejaVuSans-78"/>
     <use x="1611.380859" xlink:href="#DejaVuSans-70"/>
     <use x="1674.857422" xlink:href="#DejaVuSans-65"/>
     <use x="1736.380859" xlink:href="#DejaVuSans-63"/>
     <use x="1791.361328" xlink:href="#DejaVuSans-74"/>
     <use x="1830.570312" xlink:href="#DejaVuSans-65"/>
     <use x="1892.09375" xlink:href="#DejaVuSans-64"/>
     <use x="1955.570312" xlink:href="#DejaVuSans-20"/>
     <use x="1987.357422" xlink:href="#DejaVuSans-72"/>
     <use x="2026.220703" xlink:href="#DejaVuSans-65"/>
     <use x="2087.744141" xlink:href="#DejaVuSans-74"/>
     <use x="2126.953125" xlink:href="#DejaVuSans-75"/>
     <use x="2190.332031" xlink:href="#DejaVuSans-72"/>
     <use x="2229.695312" xlink:href="#DejaVuSans-6e"/>
     <use x="2293.074219" xlink:href="#DejaVuSans-20"/>
     <use x="2324.861328" xlink:href="#DejaVuSans-5b"/>
     <use x="2363.875" xlink:href="#DejaVuSans-45"/>
     <use x="2427.058594" xlink:href="#DejaVuSans-71"/>
     <use x="2490.535156" xlink:href="#DejaVuSans-75"/>
     <use x="2553.914062" xlink:href="#DejaVuSans-69"/>
     <use x="2581.697266" xlink:href="#DejaVuSans-74"/>
     <use x="2620.90625" xlink:href="#DejaVuSans-79"/>
     <use x="2680.085938" xlink:href="#DejaVuSans-20"/>
     <use x="2711.873047" xlink:href="#DejaVuSans-52"/>
     <use x="2781.355469" xlink:href="#DejaVuSans-69"/>
     <use x="2809.138672" xlink:href="#DejaVuSans-73"/>
     <use x="2861.238281" xlink:href="#DejaVuSans-6b"/>
     <use x="2919.148438" xlink:href="#DejaVuSans-20"/>
     <use x="2950.935547" xlink:href="#DejaVuSans-50"/>
     <use x="3009.488281" xlink:href="#DejaVuSans-72"/>
     <use x="3048.351562" xlink:href="#DejaVuSans-65"/>
     <use x="3109.875" xlink:href="#DejaVuSans-6d"/>
     <use x="3207.287109" xlink:href="#DejaVuSans-69"/>
     <use x="3235.070312" xlink:href="#DejaVuSans-75"/>
     <use x="3298.449219" xlink:href="#DejaVuSans-6d"/>
     <use x="3395.861328" xlink:href="#DejaVuSans-20"/>
     <use x="3427.648438" xlink:href="#DejaVuSans-62"/>
     <use x="3491.125" xlink:href="#DejaVuSans-61"/>
     <use x="3552.404297" xlink:href="#DejaVuSans-73"/>
     <use x="3604.503906" xlink:href="#DejaVuSans-65"/>
     <use x="3666.027344" xlink:href="#DejaVuSans-64"/>
     <use x="3729.503906" xlink:href="#DejaVuSans-5d"/>
    </g>
   </g>
   <g id="legend_1">
    <g id="patch_53">
     <path d="M 1464.228125 37.35625 
L 1721 37.35625 
Q 1723 37.35625 1723 35.35625 
L 1723 7 
Q 1723 5 1721 5 
L 1464.228125 5 
Q 1462.228125 5 1462.228125 7 
L 1462.228125 35.35625 
Q 1462.228125 37.35625 1464.228125 37.35625 
z
" style="fill:#ffffff;opacity:0.8;stroke:#cccccc;stroke-linejoin:miter;"/>
    </g>
    <g id="patch_54">
     <path d="M 1466.228125 16.598438 
L 1486.228125 16.598438 
L 1486.228125 9.598438 
L 1466.228125 9.598438 
z
" style="fill:#ff0000;opacity:0.5;"/>
    </g>
    <g id="text_82">
     <!-- Annualised return -->
     <g transform="translate(1494.228125 16.598438)scale(0.1 -0.1)">
      <use xlink:href="#DejaVuSans-41"/>
      <use x="68.408203" xlink:href="#DejaVuSans-6e"/>
      <use x="131.787109" xlink:href="#DejaVuSans-6e"/>
      <use x="195.166016" xlink:href="#DejaVuSans-75"/>
      <use x="258.544922" xlink:href="#DejaVuSans-61"/>
      <use x="319.824219" xlink:href="#DejaVuSans-6c"/>
      <use x="347.607422" xlink:href="#DejaVuSans-69"/>
      <use x="375.390625" xlink:href="#DejaVuSans-73"/>
      <use x="427.490234" xlink:href="#DejaVuSans-65"/>
      <use x="489.013672" xlink:href="#DejaVuSans-64"/>
      <use x="552.490234" xlink:href="#DejaVuSans-20"/>
      <use x="584.277344" xlink:href="#DejaVuSans-72"/>
      <use x="623.140625" xlink:href="#DejaVuSans-65"/>
      <use x="684.664062" xlink:href="#DejaVuSans-74"/>
      <use x="723.873047" xlink:href="#DejaVuSans-75"/>
      <use x="787.251953" xlink:href="#DejaVuSans-72"/>
      <use x="826.615234" xlink:href="#DejaVuSans-6e"/>
     </g>
    </g>
    <g id="patch_55">
     <path d="M 1466.228125 31.276562 
L 1486.228125 31.276562 
L 1486.228125 24.276562 
L 1466.228125 24.276562 
z
" style="fill:#0000ff;opacity:0.5;"/>
    </g>
    <g id="text_83">
     <!-- Expected return[Equity Risk Premium based] -->
     <g transform="translate(1494.228125 31.276562)scale(0.1 -0.1)">
      <use xlink:href="#DejaVuSans-45"/>
      <use x="63.183594" xlink:href="#DejaVuSans-78"/>
      <use x="122.363281" xlink:href="#DejaVuSans-70"/>
      <use x="185.839844" xlink:href="#DejaVuSans-65"/>
      <use x="247.363281" xlink:href="#DejaVuSans-63"/>
      <use x="302.34375" xlink:href="#DejaVuSans-74"/>
      <use x="341.552734" xlink:href="#DejaVuSans-65"/>
      <use x="403.076172" xlink:href="#DejaVuSans-64"/>
      <use x="466.552734" xlink:href="#DejaVuSans-20"/>
      <use x="498.339844" xlink:href="#DejaVuSans-72"/>
      <use x="537.203125" xlink:href="#DejaVuSans-65"/>
      <use x="598.726562" xlink:href="#DejaVuSans-74"/>
      <use x="637.935547" xlink:href="#DejaVuSans-75"/>
      <use x="701.314453" xlink:href="#DejaVuSans-72"/>
      <use x="740.677734" xlink:href="#DejaVuSans-6e"/>
      <use x="804.056641" xlink:href="#DejaVuSans-5b"/>
      <use x="843.070312" xlink:href="#DejaVuSans-45"/>
      <use x="906.253906" xlink:href="#DejaVuSans-71"/>
      <use x="969.730469" xlink:href="#DejaVuSans-75"/>
      <use x="1033.109375" xlink:href="#DejaVuSans-69"/>
      <use x="1060.892578" xlink:href="#DejaVuSans-74"/>
      <use x="1100.101562" xlink:href="#DejaVuSans-79"/>
      <use x="1159.28125" xlink:href="#DejaVuSans-20"/>
      <use x="1191.068359" xlink:href="#DejaVuSans-52"/>
      <use x="1260.550781" xlink:href="#DejaVuSans-69"/>
      <use x="1288.333984" xlink:href="#DejaVuSans-73"/>
      <use x="1340.433594" xlink:href="#DejaVuSans-6b"/>
      <use x="1398.34375" xlink:href="#DejaVuSans-20"/>
      <use x="1430.130859" xlink:href="#DejaVuSans-50"/>
      <use x="1488.683594" xlink:href="#DejaVuSans-72"/>
      <use x="1527.546875" xlink:href="#DejaVuSans-65"/>
      <use x="1589.070312" xlink:href="#DejaVuSans-6d"/>
      <use x="1686.482422" xlink:href="#DejaVuSans-69"/>
      <use x="1714.265625" xlink:href="#DejaVuSans-75"/>
      <use x="1777.644531" xlink:href="#DejaVuSans-6d"/>
      <use x="1875.056641" xlink:href="#DejaVuSans-20"/>
      <use x="1906.84375" xlink:href="#DejaVuSans-62"/>
      <use x="1970.320312" xlink:href="#DejaVuSans-61"/>
      <use x="2031.599609" xlink:href="#DejaVuSans-73"/>
      <use x="2083.699219" xlink:href="#DejaVuSans-65"/>
      <use x="2145.222656" xlink:href="#DejaVuSans-64"/>
      <use x="2208.699219" xlink:href="#DejaVuSans-5d"/>
     </g>
    </g>
   </g>
  </g>
 </g>
 <defs>
  <clipPath id="p62cdd4661e">
   <rect height="1152" width="1728" x="0" y="0"/>
  </clipPath>
 </defs>
</svg>
